<svg width="572" height="558" viewBox="0 0 572 558" fill="none" xmlns="http://www.w3.org/2000/svg">
<path d="M275.299 32.3356C280.025 34.1952 283.58 32.3356 286.488 28.1716C290.77 22.0671 298.89 14.9519 303.252 15.1945C313.27 15.7604 322.682 42.8466 329.065 58.6536C335.447 74.4606 344.172 76.0777 358.715 80.0395C373.297 84.0014 382.386 108.904 366.915 115.292C366.915 115.292 383.598 130.776 358.715 139.306C358.715 139.306 369.944 154.506 350.837 169.707C331.731 184.907 318.36 187.333 320.178 198.248C321.995 209.164 352.978 221.332 372.408 242.597C391.838 263.862 392.444 288.765 392.444 288.765C392.444 288.765 413.409 261.113 437.081 269.643C437.081 269.643 473.517 206.455 522.395 221.939C522.395 221.939 531.201 210.983 543.966 223.475C556.731 235.926 557.943 303.076 531.524 325.553C531.524 325.553 563.113 331.617 570.99 367.8C578.867 403.942 540.936 424.923 540.936 424.923C540.936 424.923 559.437 441.013 523.041 495.428C486.605 549.803 413.127 541.313 404.038 534.925C404.038 534.925 372.449 545.275 358.795 531.287C358.795 531.287 339.688 574.423 292.911 549.803C292.911 549.803 245.245 556.19 203.355 546.447C161.466 536.745 94.3698 495.105 94.3698 495.105C94.3698 495.105 90.1284 507.88 77.0808 507.273C64.0332 506.667 40.9677 475.983 33.9794 454.718C26.991 433.453 20.9318 433.736 16.3671 437.092C11.8025 440.447 -2.73967 436.162 6.02603 422.821C6.02603 422.821 -1.36625 419.991 1.86535 410.45C5.09695 400.95 17.4578 405.599 18.6697 408.833C18.6697 408.833 19.4776 402.971 27.1526 401.961C34.8276 400.95 37.6957 414.331 37.6957 414.331L65.4066 435.394L55.4695 352.963C55.4695 352.963 27.1526 352.559 27.9605 318.519C27.9605 318.519 10.3483 311.646 12.772 289.371C15.1957 267.096 34.6257 240.373 52.2379 228.609C69.8501 216.845 76.9192 217.856 77.7271 207.547C78.535 197.238 76.9192 195.58 93.7235 184.665C93.7235 184.665 93.9255 176.782 101.803 175.569C109.68 174.356 111.295 181.431 109.882 183.856C109.882 183.856 117.96 181.229 121.232 189.516C124.464 197.804 114.971 202.493 110.891 201.887C110.891 201.887 116.143 209.164 112.103 213.449C108.064 217.734 99.7424 217.694 98.1266 213.247L93.1984 215.026L105.802 240.373L158.436 218.705L126.039 171.324C126.039 171.324 109.639 166.675 98.7325 147.432C87.7855 128.188 97.1167 113.392 97.1167 113.392C97.1167 113.392 86.5736 108.541 88.0278 100.819C89.4416 93.1379 94.693 94.3507 94.693 94.3507C94.693 94.3507 88.6337 86.2653 93.0772 77.1288C97.5206 68.0327 121.192 68.437 126.08 55.662C126.08 55.662 136.987 19.9244 147.126 17.5797C152.013 16.4477 159.244 23.8054 164.051 29.5865C167.121 33.2654 172.211 34.5186 176.614 32.6185C180.613 30.8802 185.339 28.9397 188.409 27.929C188.409 27.929 181.946 24.6948 184.168 18.6308C186.39 12.5667 193.903 17.8222 193.903 17.8222C193.903 17.8222 192.893 4.03658 202.79 0.398142C212.687 -3.2403 214.383 20.0861 224.442 21.0564C236.56 22.1884 255.586 24.7353 275.299 32.4973V32.3356Z" fill="url(#paint0_linear_65_19579)"/>
<g style="mix-blend-mode:screen" opacity="0.67">
<path d="M221.21 76.8863C212.444 70.0541 223.028 48.0618 243.952 57.5621C264.917 67.0221 237.691 89.7421 221.21 76.8863Z" fill="#A7A8A8"/>
</g>
<g style="mix-blend-mode:screen" opacity="0.67">
<path d="M207.112 76.4415C217.171 69.6094 207.516 47.5766 189.136 54.2066C170.757 60.8367 194.469 85.0525 207.112 76.4415Z" fill="#A7A8A8"/>
</g>
<g style="mix-blend-mode:multiply" opacity="0.41">
<path d="M502.601 430.057C502.601 430.057 480.748 447.684 453.723 417.282C426.699 386.881 448.27 315.204 448.27 315.204C414.217 331.011 399.715 283.994 410.258 273.2C399.594 279.345 392.404 288.765 392.404 288.765C393.939 310.353 371.762 309.423 371.762 309.423C358.997 332.83 275.218 331.011 255.505 309.746C235.793 288.482 236.56 313.708 236.56 313.708L182.835 264.549L150.761 230.145L153.589 220.604L136.34 227.72C138.885 240.09 144.177 265.802 145.106 270.047C146.318 275.707 250.012 353.084 250.012 353.084C250.012 353.084 291.214 349.446 298.122 345.443C305.03 341.482 326.439 328.343 352.736 339.299C379.033 350.254 414.258 442.509 386.021 487.787C357.785 533.066 340.173 513.014 340.173 513.014C307.978 533.672 278.854 504.807 278.854 504.807C266.695 512.69 253.97 497.813 256.192 489.404C258.414 480.996 224.522 492.356 224.522 492.356C224.522 492.356 169.262 464.42 163.486 459.246C157.709 454.071 127.049 425.529 127.049 425.529L138.885 303.682C138.885 303.682 118.849 241.707 88.4721 243.203C58.1355 244.739 10.5098 292.969 17.0942 309.302C21.6185 315.972 27.8393 318.438 27.8393 318.438C27.0314 352.478 55.3483 352.882 55.3483 352.882L65.2854 435.313L37.5745 414.25C37.5745 414.25 34.7468 400.869 27.0314 401.88C19.3563 402.89 18.5484 408.752 18.5484 408.752C17.3366 405.518 4.97573 400.869 1.74414 410.369C-1.48746 419.87 5.90482 422.74 5.90482 422.74C-2.90129 436.121 11.6813 440.366 16.2459 437.011C20.8106 433.655 26.8698 433.372 33.8581 454.637C40.8465 475.902 63.912 506.586 76.9596 507.192C90.0071 507.799 94.2486 495.024 94.2486 495.024C94.2486 495.024 161.345 536.664 203.234 546.366C245.124 556.069 292.79 549.722 292.79 549.722C339.527 574.342 358.674 531.206 358.674 531.206C372.328 545.194 403.916 534.844 403.916 534.844C410.178 539.211 446.695 544.587 480.828 529.993C538.795 501.411 502.601 430.057 502.601 430.057Z" fill="#666666"/>
</g>
<g style="mix-blend-mode:multiply" opacity="0.41">
<path d="M165.627 179.773L226.34 178.803C226.34 178.803 261.241 223.758 262.453 224.971C263.665 226.183 301.758 248.823 301.758 248.823C332.256 250.197 341.991 255.048 341.991 255.048C326.52 243.81 305.555 241.99 305.555 241.99L295.214 217.37C295.214 217.37 307.049 193.074 329.509 209.366C329.509 209.366 329.549 209.366 329.59 209.406C324.298 205.363 320.662 201.725 320.097 198.208C318.279 187.252 331.65 184.827 350.757 169.666C369.864 154.466 358.634 139.265 358.634 139.265C370.469 175.73 289.114 185.756 269.28 169.666C249.446 153.576 226.623 140.801 198.993 138.497C171.363 136.193 133.189 157.821 133.189 157.821C133.189 157.821 98.6517 155.396 94.1678 135.627C94.9354 139.225 96.3088 143.146 98.6517 147.27C109.599 166.513 125.959 171.162 125.959 171.162L134.038 183.007L134.442 183.331V183.614L155.326 214.177L165.505 179.733L165.627 179.773Z" fill="#666666"/>
</g>
<g style="mix-blend-mode:multiply" opacity="0.45">
<path d="M261.241 517.542C261.241 517.542 255.182 517.542 253.203 513.499L132.583 516.854C154.68 528.538 182.148 541.515 203.234 546.407C241.367 555.26 284.267 550.773 291.659 549.883C251.062 551.218 261.201 517.542 261.201 517.542H261.241Z" fill="#666666"/>
</g>
<g style="mix-blend-mode:multiply" opacity="0.45">
<path d="M246.053 190.001C234.217 186.969 275.824 218.543 275.824 218.543C275.824 218.543 280.066 201.24 296.789 195.297C313.472 189.355 320.178 198.168 320.178 198.168C318.925 190.689 324.783 187.212 334.679 180.905C318.36 190.567 257.969 192.993 246.093 189.961L246.053 190.001Z" fill="#666666"/>
</g>
<mask id="mask0_65_19579" style="mask-type:luminance" maskUnits="userSpaceOnUse" x="49" y="136" width="253" height="422">
<path d="M240.317 288.886C226.865 300.65 195.276 235.199 195.276 235.199C195.276 235.199 178.068 232.975 178.876 223.96C179.684 214.945 188.813 214.743 188.813 214.743C186.794 213.934 180.734 204.798 190.429 200.391C200.124 195.984 206.425 203.787 206.425 203.787C207.435 201.563 216.565 196.914 221.21 204.798C225.855 212.681 217.978 219.998 217.978 219.998C234.177 242.476 282.126 248.54 301.798 248.823C277.197 184.988 234.056 136.274 196.327 136.233C168.535 136.233 140.582 153.738 116.627 181.875L115.133 183.654C117.355 184.22 119.778 185.676 121.232 189.395C124.464 197.682 114.971 202.372 110.891 201.765C110.891 201.765 116.143 209.042 112.103 213.328C108.064 217.572 99.7424 217.572 98.1266 213.126L93.2792 214.864L92.3097 216.4C82.0898 232.935 73.3241 251.491 66.4165 271.219C69.4865 279.749 65.0027 286.218 60.4785 290.22C55.1059 309.544 51.5108 329.758 50.0566 350.133C53.0862 354.014 56.4794 361.372 49.2891 370.71C49.2891 396.139 52.8438 421.487 60.4785 445.501C65.5278 449.503 73.5664 457.992 69.6077 469.191C71.4255 473.193 73.3645 477.155 75.465 481.036C80.474 490.294 85.5637 498.581 90.7343 506.02C94.4506 506.505 100.55 508.729 99.7424 517.946C149.873 579.314 206.587 563.911 253.243 513.418C248.638 505.656 253.809 493.609 256.192 489.323C259.02 484.27 255.99 481.44 251.143 483.664C246.295 485.887 243.468 491.143 223.634 480.025C203.8 468.867 181.138 437.294 181.138 437.294C177.301 440.73 164.536 440.73 161.102 434.868C157.669 429.006 162.314 425.166 162.314 425.166C158.477 426.581 152.175 422.942 152.579 415.221C152.983 407.539 159.244 405.922 159.244 405.922C159.244 405.922 156.215 395.573 165.303 393.956C174.392 392.339 180.896 400.222 180.896 400.222C190.631 400.626 197.902 401.637 209.011 413.199C220.119 424.761 236.116 441.134 236.116 441.134C236.116 441.134 234.298 391.692 288.75 351.588C291.982 349.203 295.052 347.182 298.082 345.363C263.988 328.302 240.276 288.765 240.276 288.765L240.317 288.886Z" fill="white"/>
</mask>
<g mask="url(#mask0_65_19579)">
<path d="M256.192 489.404C259.02 484.351 255.99 481.521 251.143 483.744C246.295 485.968 243.468 491.223 223.634 480.106C203.8 468.948 181.138 437.375 181.138 437.375C177.301 440.811 164.536 440.811 161.102 434.949C157.669 429.087 162.314 425.246 162.314 425.246C158.477 426.661 152.175 423.023 152.579 415.301C152.983 407.62 159.244 406.003 159.244 406.003C159.244 406.003 156.215 395.654 165.303 394.037C174.392 392.42 180.896 400.303 180.896 400.303C190.631 400.707 197.902 401.718 209.011 413.28C220.119 424.842 236.116 441.215 236.116 441.215C236.116 441.215 234.298 391.773 288.75 351.669C291.982 349.284 295.052 347.263 298.082 345.443C263.988 328.383 240.276 288.845 240.276 288.845C226.825 300.61 195.236 235.158 195.236 235.158C195.236 235.158 178.028 232.935 178.836 223.919C179.644 214.904 188.773 214.702 188.773 214.702C186.753 213.894 180.694 204.757 190.389 200.35C200.083 195.944 206.385 203.746 206.385 203.746C207.395 201.523 216.524 196.874 221.17 204.757C225.815 212.64 217.938 219.958 217.938 219.958C234.136 242.435 282.085 248.499 301.758 248.782C277.157 184.948 234.015 136.233 196.286 136.193C168.495 136.193 140.541 153.698 116.587 181.835L115.092 183.614C117.314 184.18 119.738 185.635 121.192 189.354C124.424 197.642 114.931 202.331 110.851 201.725C110.851 201.725 116.102 209.002 112.063 213.287C108.023 217.532 99.702 217.532 98.0862 213.085L93.2388 214.823L92.2693 216.36C47.6328 288.482 30.9093 398.605 75.3842 481.036C130.725 583.599 198.791 572.28 253.162 513.458C248.557 505.696 253.728 493.649 256.111 489.364L256.192 489.404Z" fill="url(#paint1_linear_65_19579)"/>
<g style="mix-blend-mode:screen" opacity="0.65">
<path d="M107.821 196.914C107.821 196.914 172.251 163.036 222.907 202.049C226.502 204.798 223.917 210.498 219.513 209.447C191.722 202.857 133.997 192.75 96.6724 211.266C46.0574 236.371 66.4165 271.219 66.4165 271.219C66.4165 271.219 153.548 223.111 220.766 291.029C223.795 294.101 220.806 299.195 216.686 297.982C186.996 289.25 117.031 272.675 60.4785 290.22C-13.404 313.142 50.0566 350.133 50.0566 350.133C50.0566 350.133 127.292 289.816 224.482 361.978C228.037 364.606 225.573 370.266 221.25 369.417C186.955 362.787 108.145 351.184 49.2891 370.71C-27.9865 396.382 60.4785 445.501 60.4785 445.501C60.4785 445.501 121.596 406.731 206.991 445.501C206.991 445.501 107.256 434.868 69.6077 469.191C31.9192 503.513 90.7343 506.02 90.7343 506.02C90.7343 506.02 132.583 512.003 178.553 507.273C183.239 506.788 184.976 513.216 180.694 515.156C163.486 522.999 134.926 530.398 99.7424 517.946C41.2505 497.207 7.43986 464.218 7.43986 464.218L-13 358.542L-8.75853 336.267L25.8196 256.302L61.246 214.945L107.781 196.914H107.821Z" fill="#FF9751"/>
</g>
<g style="mix-blend-mode:multiply" opacity="0.28">
<path d="M50.0565 350.133C50.0565 350.133 127.292 289.816 224.482 361.978C224.482 361.978 136.017 279.143 50.0565 350.133Z" fill="#AA3C00"/>
</g>
<g style="mix-blend-mode:multiply" opacity="0.28">
<path d="M178.553 507.354C178.553 507.354 106.811 507.192 90.7343 506.101C90.7343 506.101 132.583 512.084 178.553 507.354Z" fill="#AA3C00"/>
</g>
<g style="mix-blend-mode:multiply" opacity="0.28">
<path d="M60.4785 445.541C60.4785 445.541 99.9848 420.517 159.81 430.825C159.769 429.33 160.214 428.117 160.739 427.147C90.6535 410.935 60.4785 445.541 60.4785 445.541Z" fill="#AA3C00"/>
</g>
<g style="mix-blend-mode:multiply" opacity="0.28">
<path d="M121.677 191.133C142.682 183.776 183.885 174.76 219.392 199.502H219.433C219.433 199.502 181.421 164.209 120.344 187.737C120.627 188.263 120.95 188.748 121.192 189.395C121.434 190.001 121.596 190.567 121.677 191.133Z" fill="#AA3C00"/>
</g>
<g style="mix-blend-mode:multiply" opacity="0.28">
<path d="M208.486 280.073C208.486 280.073 208.445 280.032 208.405 279.992C144.823 216.238 66.4569 271.26 66.4569 271.26C66.4569 271.26 143.45 228.771 208.486 280.073Z" fill="#AA3C00"/>
</g>
<g style="mix-blend-mode:multiply" opacity="0.15">
<path d="M50.0565 350.133C50.0565 350.133 -13.404 313.142 60.4784 290.22C144.702 237.543 220.766 291.029 220.766 291.029C153.548 223.071 66.4165 271.219 66.4165 271.219C66.4165 271.219 46.0978 236.371 96.6723 211.266C100.348 209.447 104.267 207.951 108.306 206.657C163.122 181.511 222.907 202.008 222.907 202.008C172.251 162.996 107.821 196.874 107.821 196.874L61.2863 214.904L25.8599 256.261L3.03674 308.978L8.2477 380.575L31.7172 464.016C31.7172 464.016 48.3195 491.143 73.6472 507.233C81.7262 510.992 90.3707 514.631 99.7423 517.946C139.168 525.142 178.553 507.273 178.553 507.273C132.583 512.003 90.7342 506.02 90.7342 506.02C90.7342 506.02 31.9596 503.513 69.6077 469.191C92.2289 436.364 145.429 432.523 168.656 432.523C103.903 417.97 60.4784 445.5 60.4784 445.5C60.4784 445.5 -27.9866 396.382 49.289 370.71C135.694 312.617 224.442 361.978 224.442 361.978C127.251 289.816 50.0161 350.133 50.0161 350.133H50.0565Z" fill="#AA3C00"/>
</g>
<g style="mix-blend-mode:screen">
<path d="M112.75 205.323C112.951 205.808 113.073 206.293 113.234 206.819C136.542 201.725 164.455 202.655 185.662 204.676C185.864 204.191 186.147 203.746 186.511 203.261C163.445 200.108 136.017 198.976 112.75 205.323Z" fill="#FF9751"/>
</g>
<g style="mix-blend-mode:screen">
<path d="M69.6077 469.231C69.8904 469.838 70.1732 470.444 70.456 471.091C102.045 444.328 181.704 444.166 183.441 444.166C151.569 443.277 95.7028 445.46 69.6077 469.272V469.231Z" fill="#FF9751"/>
</g>
<g style="mix-blend-mode:screen">
<path d="M60.4784 290.26C60.1957 291.271 59.9129 292.282 59.6301 293.293C122.767 271.866 216.686 298.022 216.686 298.022C186.995 289.29 117.031 272.715 60.4784 290.26Z" fill="#FF9751"/>
</g>
<g style="mix-blend-mode:screen">
<path d="M180.694 515.237C163.486 523.08 134.926 530.478 99.7423 518.027C100.51 518.997 101.318 520.008 102.085 520.938C146.762 537.068 180.653 515.237 180.653 515.237H180.694Z" fill="#FF9751"/>
</g>
<g style="mix-blend-mode:screen">
<path d="M49.2891 370.751C49.2891 371.6 49.2891 372.489 49.2891 373.338C124.181 353.529 221.21 369.457 221.21 369.457C186.915 362.787 108.104 351.225 49.2487 370.751H49.2891Z" fill="#FF9751"/>
</g>
<g style="mix-blend-mode:multiply" opacity="0.25">
<path d="M325.187 122.165L243.145 157.983C262.938 177.59 268.634 223.394 264.917 275.949L195.277 235.199C195.277 235.199 206.951 293.858 258.01 331.375C250.618 373.662 238.58 415.989 224.078 449.543C195.64 420.112 168.091 397.716 181.098 437.375C188.046 458.518 197.619 472.465 207.759 481.562C202.063 500.279 196.286 512.407 179.28 518.795C113.436 543.496 67.0225 463.41 67.0225 463.41L53.2074 561.324L212.929 648L384.325 514.671L423.185 197.44L325.227 122.165H325.187Z" fill="#AA3C00"/>
</g>
<g style="mix-blend-mode:multiply" opacity="0.28">
<path d="M257.566 172.658C293.598 214.5 286.569 439.275 237.853 505.939C189.177 572.603 117.597 536.461 117.597 536.461L123.818 573.857L260.393 582.346C260.393 582.346 388.324 534.561 385.86 467.291C383.436 400.06 349.424 281.205 349.424 281.205C349.424 281.205 315.411 176.418 310.564 176.418C305.716 176.418 257.525 172.658 257.525 172.658H257.566Z" fill="#AA3C00"/>
</g>
</g>
<path d="M199.356 132.595C199.437 131.786 200.124 131.18 200.932 131.261C201.74 131.342 202.305 132.029 202.265 132.837C202.184 133.565 202.265 135.869 203.315 136.678C203.881 137.123 204.81 137.163 206.062 136.759C207.678 136.233 209.132 136.031 210.465 136.031L211.111 128.512C211.192 127.703 211.919 127.137 212.687 127.178C213.495 127.258 214.1 127.946 214.02 128.754L213.373 136.395C215.999 137.042 218.059 138.416 219.635 139.548C220.402 140.074 221.654 140.963 221.978 140.882C223.755 140.478 225.411 137.648 225.855 136.678C226.219 135.95 227.067 135.667 227.794 135.991C228.521 136.355 228.845 137.203 228.481 137.931C228.239 138.416 226.259 142.419 223.23 143.51C223.028 143.591 222.826 143.631 222.624 143.712C221.008 144.076 219.594 143.065 217.938 141.933C215.353 140.114 212.121 137.85 206.951 139.508C204.688 140.236 202.871 140.033 201.497 138.942C199.033 136.961 199.316 132.999 199.356 132.554V132.595Z" fill="#180328"/>
<path d="M231.107 124.146C231.107 124.146 232.682 124.509 234.096 109.066C235.51 93.6231 244.397 79.5949 260.636 75.6734C276.834 71.752 292.709 78.9076 298.526 91.8039C305.393 107.004 309.392 107.692 309.392 107.692C309.392 107.692 302.242 112.058 299.94 119.618C295.941 132.757 248.194 136.678 244.558 131.18C240.923 125.682 231.147 124.146 231.147 124.146H231.107Z" fill="#1C0A01"/>
<path d="M199.074 119.941C199.074 119.941 197.539 120.224 197.175 104.7C196.811 89.1761 189.136 74.7841 173.786 70.0137C158.436 65.2433 143.773 72.2372 136.259 84.1632C128.746 96.1296 128.746 95.5636 128.746 95.5636C128.746 95.5636 129.958 98.5957 133.149 111.896C136.34 125.197 182.754 131.665 186.592 126.41C190.429 121.114 199.074 119.941 199.074 119.941Z" fill="#1C0A01"/>
<g style="mix-blend-mode:multiply" opacity="0.31">
<path d="M133.23 110.441C133.23 110.441 135.613 131.301 156.336 137.446C177.058 143.591 189.217 121.397 189.217 121.397L133.23 110.481V110.441Z" fill="#666666"/>
</g>
<g style="mix-blend-mode:multiply" opacity="0.31">
<path d="M240.842 128.269C252.193 145.37 264.756 147.068 275.662 146.138C286.569 145.208 301.192 133.403 302.081 114.564C302.97 95.7658 240.882 128.269 240.882 128.269H240.842Z" fill="#666666"/>
</g>
<path d="M263.463 77.2503C296.87 72.4799 314.765 115.656 291.82 133.808C268.876 151.96 236.924 141.085 236.52 112.139C236.197 89.3784 253.041 78.7461 263.463 77.2907V77.2503Z" fill="url(#paint2_linear_65_19579)"/>
<path d="M169.383 71.7924C194.105 74.1372 201.82 110.441 185.339 127.744C168.899 145.046 137.027 131.827 133.189 113.271C129.352 94.7146 139.855 69.0029 169.343 71.7924H169.383Z" fill="url(#paint3_linear_65_19579)"/>
<mask id="mask1_65_19579" style="mask-type:luminance" maskUnits="userSpaceOnUse" x="236" y="76" width="67" height="67">
<path d="M263.463 77.2503C296.87 72.4799 314.765 115.656 291.82 133.808C268.876 151.96 236.924 141.085 236.52 112.139C236.197 89.3784 253.041 78.7461 263.463 77.2907V77.2503Z" fill="white"/>
</mask>
<g mask="url(#mask1_65_19579)">
<path style="mix-blend-mode:multiply" d="M296.708 108.945C296.829 123.216 284.509 134.899 269.159 135.021C253.849 135.142 241.327 123.661 241.205 109.43C241.084 95.1594 253.405 83.476 268.755 83.3547C284.065 83.2334 296.587 94.7147 296.708 108.945Z" fill="url(#paint4_linear_65_19579)"/>
<path style="mix-blend-mode:screen" opacity="0.32" d="M283.943 130.371C284.024 142.297 273.723 152.081 260.918 152.162C248.113 152.283 237.61 142.661 237.53 130.735C237.449 118.809 247.749 109.026 260.555 108.945C273.36 108.864 283.863 118.445 283.943 130.371Z" fill="url(#paint5_linear_65_19579)"/>
<g style="mix-blend-mode:multiply" opacity="0.47">
<path d="M238.58 126.531C238.58 126.531 229.087 83.759 267.139 81.0504C305.716 78.3418 304.545 125.965 304.545 125.965C304.545 125.965 324.338 63.6667 307.817 42.9276C291.295 22.1885 280.954 -11.2851 256.717 3.14733C232.48 17.6202 221.291 66.1328 221.291 66.1328L238.58 126.531Z" fill="#834A2C"/>
</g>
<path d="M281.479 94.0275C285.276 93.1381 293.517 100.415 293.113 105.751C292.709 111.088 268.997 96.8978 281.479 94.0275Z" fill="white"/>
<path d="M275.259 98.1915C276.39 96.8978 281.479 105.751 279.46 107.005C277.44 108.258 274.128 99.4851 275.259 98.1915Z" fill="white"/>
</g>
<mask id="mask2_65_19579" style="mask-type:luminance" maskUnits="userSpaceOnUse" x="132" y="71" width="63" height="65">
<path d="M169.383 71.7924C194.105 74.1372 201.82 110.441 185.339 127.744C168.899 145.046 137.027 131.827 133.189 113.271C129.352 94.7146 139.855 69.0029 169.343 71.7924H169.383Z" fill="white"/>
</mask>
<g mask="url(#mask2_65_19579)">
<path style="mix-blend-mode:multiply" d="M190.752 103.447C190.873 117.718 179.199 129.361 164.697 129.482C150.196 129.603 138.32 118.122 138.198 103.851C138.077 89.5804 149.751 77.9374 164.253 77.8161C178.755 77.6949 190.631 89.1762 190.752 103.447Z" fill="url(#paint6_linear_65_19579)"/>
<path style="mix-blend-mode:screen" opacity="0.32" d="M190.106 126.733C190.187 138.659 180.451 148.402 168.293 148.523C156.174 148.604 146.237 139.023 146.156 127.097C146.075 115.171 155.811 105.428 167.969 105.307C180.128 105.185 190.025 114.807 190.106 126.733Z" fill="url(#paint7_linear_65_19579)"/>
<g style="mix-blend-mode:multiply" opacity="0.47">
<path d="M132.583 120.467C132.583 120.467 126.039 77.0075 162.839 75.1883C200.326 73.3286 195.963 122.852 195.963 122.852C195.963 122.852 216.888 57.0769 201.255 36.2974C185.622 15.5179 175.806 -17.9558 152.862 -3.48287C129.917 10.9496 119.334 59.4621 119.334 59.4621L132.583 120.467Z" fill="#834A2C"/>
</g>
<path d="M176.372 88.4889C179.967 87.5995 187.763 94.8764 187.399 100.213C187.036 105.549 164.536 91.3592 176.372 88.4889Z" fill="white"/>
<path d="M170.474 92.6529C171.565 91.3592 176.372 100.213 174.433 101.466C172.534 102.719 169.383 93.9466 170.474 92.6529Z" fill="white"/>
</g>
<g style="mix-blend-mode:multiply" opacity="0.31">
<path d="M208.284 122.205C208.284 122.205 213.05 116.545 215.838 115.939C218.584 115.332 218.261 123.094 218.261 123.094L211.636 124.833L208.324 122.245L208.284 122.205Z" fill="#666666"/>
</g>
<path d="M215.434 122.326C213.979 122.771 212.364 122.65 211.031 122.003C210.142 121.558 209.051 121.437 208.122 122.326C206.426 123.943 210.101 127.42 211.717 128.795C212.162 129.158 212.768 129.199 213.252 128.916C215.151 127.784 219.594 124.833 218.18 123.054C217.413 122.084 216.363 122.043 215.393 122.326H215.434Z" fill="#F9D4B9"/>
<g style="mix-blend-mode:multiply">
<path d="M215.434 122.326C213.979 122.771 212.364 122.65 211.031 122.003C210.142 121.558 209.051 121.437 208.122 122.326C206.426 123.943 210.101 127.42 211.717 128.795C212.162 129.158 212.768 129.199 213.252 128.916C215.151 127.784 219.594 124.833 218.18 123.054C217.413 122.084 216.363 122.043 215.393 122.326H215.434Z" fill="#F3B888"/>
</g>
<g style="mix-blend-mode:multiply">
<path d="M211.758 128.835C212.202 129.199 212.808 129.239 213.293 128.956C214.908 127.986 218.302 125.763 218.463 123.984C213.333 127.46 210.303 127.501 207.759 123.822C208.122 125.56 210.505 127.784 211.758 128.835Z" fill="#F3B888"/>
</g>
<path d="M147.934 49.6383L156.538 46.1211C157.992 45.5147 158.477 43.6551 157.426 42.4423L150.761 34.6803C149.469 33.1845 147.045 33.8717 146.722 35.8122L144.742 47.0914C144.419 48.8702 146.197 50.3256 147.893 49.6383H147.934Z" fill="#FFAEB8"/>
<path d="M302.404 50.0832L293.961 46.2426C292.507 45.5958 292.144 43.6957 293.234 42.5637L300.223 35.0847C301.556 33.6698 303.979 34.4379 304.222 36.3784L305.716 47.698C305.959 49.5172 304.101 50.8513 302.444 50.1236L302.404 50.0832Z" fill="#FFAEB8"/>
<g style="mix-blend-mode:multiply" opacity="0.45">
<path d="M435.303 468.948C435.303 468.948 459.985 373.742 392.404 288.765C392.404 288.765 396.969 299.72 394.545 304.855C394.545 304.855 403.351 302.429 405.169 316.093C406.987 329.758 396.363 338.894 388.768 340.713C388.768 340.713 381.215 354.701 369.5 355.308C369.5 355.308 392.727 385.992 403.351 409.399C403.351 409.399 391.798 358.744 402.745 347.141C413.692 335.579 406.987 317.023 406.987 317.023C406.987 317.023 443.423 372.934 421.973 449.099C400.523 525.263 358.715 531.246 358.715 531.246C372.368 545.234 403.957 534.885 403.957 534.885C409.249 538.604 436.192 542.93 464.994 535.41C462.732 535.289 408.724 517.461 435.344 468.989L435.303 468.948Z" fill="#666666"/>
</g>
<path d="M299.213 310.353C302.363 312.253 307.696 312.576 310.523 310.07C311.372 311.929 312.987 313.385 315.128 313.708C317.835 314.112 320.339 312.455 321.47 310.151C323.652 312.334 327.085 313.546 329.953 313.991C333.993 314.638 338.113 314.072 341.829 312.293C349.504 308.655 353.867 300.165 353.988 291.878C353.988 290.341 351.645 290.341 351.605 291.878C351.484 298.912 348.05 306.027 341.829 309.625C338.759 311.363 335.124 312.131 331.609 311.808C329.913 311.646 328.176 311.242 326.641 310.555C325.065 309.868 322.844 308.736 322.157 307.078C321.672 305.906 319.814 305.946 319.814 307.402C319.814 309.625 317.754 311.727 315.451 311.323C313.351 310.959 311.977 308.614 312.422 306.633C312.664 305.138 310.483 304.491 310.119 305.987C309.311 310.797 302.727 309.908 299.819 307.846C296.385 305.38 294.446 300.893 295.617 296.769C296.021 295.273 293.759 294.667 293.315 296.122C291.78 301.54 294.527 307.482 299.253 310.312L299.213 310.353Z" fill="#535353"/>
<path d="M334.397 156.285C336.821 155.84 338.396 153.94 339.567 151.919C341.264 149.008 342.476 145.168 341.183 142.014C344.374 142.055 347.485 140.276 349.464 137.648C352.292 133.889 352.615 127.38 347.323 125.641C345.869 125.156 345.223 127.461 346.677 127.946C350.676 129.239 349.181 134.495 347.081 136.799C345.142 138.982 341.87 140.519 339.042 139.184C337.911 138.659 336.497 140.114 337.588 141.044C340.456 143.51 339.325 147.432 337.709 150.302C336.901 151.757 335.891 153.455 334.154 153.9C332.296 154.345 330.277 153.374 328.661 152.647C327.287 152 326.075 154.062 327.449 154.708C329.59 155.679 331.933 156.73 334.356 156.285H334.397Z" fill="#535353"/>
<path d="M364.41 466.725C364.895 465.269 362.592 464.623 362.108 466.078C358.876 475.861 351.322 484.068 341.668 487.707C331.852 491.426 319.855 490.9 311.21 484.594C306.888 481.44 303.495 476.791 303.131 471.334C303.05 470.404 301.798 469.595 301.111 470.485C299.536 472.465 296.991 474.123 294.365 473.436C292.144 472.829 290.649 470.444 291.417 468.221C291.82 467.089 290.205 466.199 289.437 467.048C286.125 470.727 281.803 475.417 276.309 474.244C271.785 473.274 268.149 469.11 268.351 464.42C268.391 462.884 266.048 462.884 265.968 464.42C265.766 469.999 269.967 475.053 275.299 476.427C280.833 477.842 285.317 474.649 289.033 470.929C289.558 472.91 291.093 474.689 293.032 475.457C295.86 476.589 298.93 475.578 301.192 473.719C303.171 483.3 312.462 489.728 321.713 491.588C333.347 493.932 345.707 490.536 354.392 482.411C358.997 478.085 362.471 472.627 364.451 466.644L364.41 466.725Z" fill="#535353"/>
<path d="M502.521 356.884C501.107 356.359 500.46 358.623 501.874 359.189C509.792 362.18 513.306 371.115 513.831 378.998C514.477 388.539 511.529 399.05 504.056 405.397C499.935 408.914 494.684 410.935 489.271 410.652C488.503 410.652 487.938 411.461 488.14 412.148C488.746 414.21 490.24 415.504 491.695 417C492.543 417.848 493.31 418.778 493.553 419.991C493.836 421.527 493.31 423.104 492.826 424.519C491.977 427.025 491.008 429.734 489.15 431.715C487.413 433.534 484.626 434.626 482.283 433.373C481.111 432.726 479.899 434.262 480.828 435.232C486.403 441.054 487.211 450.918 482.363 457.427C477.597 463.855 468.064 465.957 460.914 462.44C459.54 461.752 458.328 463.814 459.702 464.501C466.084 467.695 474.002 467.048 479.899 463.006C485.959 458.842 488.746 451.565 487.736 444.369C487.332 441.458 486.241 438.668 484.626 436.243C486.161 436.243 487.696 435.758 489.029 434.909C491.654 433.211 493.149 430.381 494.28 427.511C495.411 424.64 496.784 421.164 495.411 418.132C494.482 416.07 492.381 414.816 491.17 412.997C501.268 412.633 509.711 405.316 513.508 396.139C517.224 387.083 517.507 375.885 513.144 366.991C510.923 362.423 507.328 358.744 502.521 356.925V356.884Z" fill="#3D3D3D"/>
<path d="M29.6167 289.978C29.4955 292.161 30.3034 294.303 32.202 295.476C33.2119 296.082 34.3833 296.365 35.5548 296.486C32.1212 300.287 30.6266 305.825 32.2828 310.757C34.3429 316.862 40.6849 320.945 47.0673 320.419C48.6024 320.298 48.6024 317.913 47.0673 318.034C41.7756 318.479 36.3223 315.245 34.5449 310.11C32.8483 305.178 34.8277 299.357 39.0691 296.365C39.9578 295.718 39.7155 294.101 38.4632 294.142C37.009 294.182 35.4336 294.263 34.0602 293.737C32.2424 293.05 31.7577 291.352 31.9596 289.533C32.3232 286.258 34.9489 283.59 38.0997 282.903C39.3923 282.62 39.1499 280.396 37.7765 280.558C34.1006 281.003 30.869 278.052 30.2226 274.494C29.4551 270.492 31.7173 266.57 34.4237 263.821C35.5144 262.73 33.8178 261.032 32.7271 262.123C29.334 265.56 26.7891 270.573 28.0009 275.545C28.728 278.537 30.9901 281.124 33.7774 282.296C31.3537 284.075 29.6975 286.865 29.5359 289.937L29.6167 289.978Z" fill="#3D3D3D"/>
<path d="M556.084 278.618C553.943 279.75 551.318 280.154 548.975 279.75C548.329 279.628 547.682 279.911 547.521 280.599C547.359 281.164 547.723 281.933 548.369 282.054C551.439 282.62 554.549 282.175 557.296 280.679C557.862 280.396 558.023 279.588 557.741 279.062C557.417 278.496 556.69 278.335 556.125 278.618H556.084Z" fill="#535353"/>
<path d="M555.357 285.247C552.893 286.582 549.823 286.662 547.319 285.409C546.753 285.126 546.026 285.247 545.703 285.854C545.38 286.379 545.541 287.188 546.147 287.471C549.46 289.088 553.338 289.048 556.61 287.309C557.943 286.582 556.771 284.52 555.398 285.247H555.357Z" fill="#535353"/>
<path d="M560.73 351.871C563.517 349.729 565.537 346.697 566.264 343.26C566.385 342.654 566.102 341.926 565.416 341.805C564.81 341.684 564.083 341.967 563.961 342.654C563.8 343.422 563.598 344.15 563.315 344.837C563.315 344.837 563.194 345.12 563.275 344.958C563.275 345.039 563.194 345.12 563.194 345.201C563.113 345.363 563.032 345.524 562.952 345.686C562.79 346.05 562.588 346.373 562.386 346.697C562.184 347.02 561.982 347.303 561.74 347.627C561.74 347.627 561.619 347.788 561.74 347.667C561.659 347.748 561.619 347.829 561.538 347.91C561.417 348.071 561.295 348.193 561.174 348.314C560.932 348.597 560.649 348.88 560.366 349.163C560.245 349.284 560.084 349.405 559.962 349.527C559.882 349.567 559.841 349.648 559.76 349.688C559.76 349.688 559.478 349.931 559.599 349.81C559.074 350.214 558.831 350.82 559.154 351.427C559.437 351.912 560.285 352.235 560.77 351.871H560.73Z" fill="#535353"/>
<path d="M566.991 349.607C566.991 349.607 566.789 349.931 566.668 350.093C566.587 350.214 566.627 350.133 566.668 350.093C566.627 350.173 566.547 350.254 566.506 350.295C566.304 350.537 566.062 350.78 565.779 351.022C565.698 351.103 565.658 351.144 565.577 351.225C565.577 351.225 565.335 351.427 565.415 351.346C565.496 351.265 565.335 351.427 565.294 351.427C565.214 351.467 565.133 351.548 565.052 351.588C564.769 351.79 564.446 351.952 564.123 352.114C564.002 352.195 563.84 352.235 563.678 352.316C563.678 352.316 563.679 352.316 563.598 352.316C563.517 352.316 563.436 352.397 563.315 352.397C562.992 352.518 562.628 352.599 562.265 352.68C562.184 352.68 562.103 352.68 562.022 352.72C562.022 352.72 561.699 352.761 561.861 352.72C562.022 352.72 561.699 352.72 561.699 352.72C561.618 352.72 561.538 352.72 561.457 352.72C561.093 352.72 560.689 352.72 560.326 352.72C559.72 352.68 559.114 353.286 559.154 353.893C559.154 354.58 559.679 355.025 560.326 355.065C563.759 355.308 567.152 353.529 568.97 350.618C569.293 350.093 569.091 349.284 568.526 349.001C567.96 348.678 567.274 348.88 566.91 349.446L566.991 349.607Z" fill="#535353"/>
<path d="M489.635 530.559C486.161 531.125 482.444 529.104 480.869 525.87C480.586 525.304 479.778 525.142 479.253 525.425C478.647 525.789 478.526 526.476 478.809 527.042C480.869 531.247 485.716 533.551 490.281 532.823C490.927 532.702 491.25 531.934 491.129 531.368C490.927 530.68 490.321 530.438 489.675 530.519L489.635 530.559Z" fill="#3D3D3D"/>
<path d="M361.542 517.42C361.542 517.42 361.138 517.34 360.936 517.299C360.855 517.299 360.775 517.259 360.653 517.218C360.653 517.218 360.33 517.097 360.492 517.178C360.653 517.259 360.33 517.097 360.29 517.097C360.209 517.057 360.128 517.016 360.048 516.976C359.886 516.895 359.724 516.774 359.563 516.693C359.482 516.652 359.401 516.571 359.32 516.531C359.563 516.693 359.32 516.531 359.28 516.491C359.118 516.369 358.997 516.248 358.876 516.127C358.593 515.844 358.311 515.561 358.068 515.237C358.068 515.237 358.028 515.197 357.987 515.156C357.947 515.076 357.866 515.035 357.826 514.954C357.705 514.793 357.583 514.59 357.462 514.429C357.26 514.105 357.058 513.741 356.856 513.418C356.452 512.69 356.089 511.963 355.725 511.235C355.442 510.669 354.594 510.467 354.109 510.79C353.544 511.154 353.382 511.801 353.665 512.407C355.119 515.48 357.139 519.118 360.815 519.765C361.421 519.886 362.108 519.603 362.269 518.916C362.39 518.35 362.108 517.582 361.421 517.461L361.542 517.42Z" fill="#3D3D3D"/>
<path d="M370.065 516.45C367.884 515.844 365.622 515.237 363.723 513.903C362.229 512.852 361.057 511.154 361.057 509.335C361.057 507.799 358.674 507.799 358.674 509.335C358.674 511.882 360.128 514.105 362.108 515.642C364.249 517.299 366.874 518.027 369.46 518.755C370.954 519.159 371.56 516.854 370.106 516.45H370.065Z" fill="#3D3D3D"/>
<path d="M360.209 237.827C363.723 235.967 365.541 231.399 364.249 227.639C364.047 227.033 363.441 226.628 362.794 226.79C362.188 226.952 361.744 227.639 361.946 228.245C362.229 229.094 362.31 229.539 362.269 230.388C362.269 230.59 362.269 230.792 362.229 230.994C362.229 230.752 362.229 231.156 362.229 231.156C362.229 231.237 362.229 231.318 362.188 231.399C362.108 231.803 361.987 232.207 361.825 232.611C361.825 232.611 361.704 232.894 361.785 232.733C361.744 232.814 361.704 232.935 361.663 233.016C361.583 233.177 361.461 233.38 361.381 233.541C361.3 233.703 361.179 233.865 361.057 234.026C361.057 234.026 360.896 234.269 360.977 234.107C360.936 234.188 360.855 234.269 360.775 234.35C360.532 234.633 360.209 234.916 359.926 235.199C359.846 235.239 359.846 235.239 359.926 235.199C359.926 235.199 359.846 235.239 359.846 235.28C359.765 235.32 359.684 235.401 359.603 235.441C359.401 235.563 359.24 235.684 359.038 235.765C358.472 236.048 358.311 236.856 358.593 237.382C358.916 237.948 359.644 238.11 360.209 237.827Z" fill="#535353"/>
<path d="M360.896 238.918C359.401 239.282 360.048 241.586 361.542 241.222C366.39 239.969 369.581 234.916 368.854 230.024C368.773 229.377 367.965 229.054 367.399 229.175C366.713 229.377 366.47 229.984 366.551 230.63C366.551 230.469 366.551 230.873 366.551 230.833C366.551 230.954 366.551 231.116 366.551 231.237C366.551 231.479 366.551 231.682 366.551 231.924C366.551 232.409 366.47 232.692 366.349 233.177C366.107 234.148 365.784 234.916 365.178 235.765C364.168 237.26 362.592 238.433 360.855 238.878L360.896 238.918Z" fill="#535353"/>
<path d="M18.4676 280.841C19.0736 280.922 19.7603 280.679 19.9219 279.992C20.043 279.426 19.7603 278.617 19.0736 278.537C18.4272 278.456 17.7809 278.294 17.1346 278.132C16.8114 278.051 16.4883 277.93 16.1651 277.809C16.0843 277.809 16.0035 277.768 15.9228 277.728C15.9228 277.728 15.8824 277.728 15.842 277.728C15.6804 277.647 15.5188 277.607 15.3572 277.526C14.7513 277.243 14.1858 276.92 13.6606 276.556C13.5394 276.475 13.3779 276.354 13.2567 276.273C13.1759 276.232 13.1355 276.192 13.0547 276.111C13.1355 276.192 13.0547 276.111 13.0143 276.111C12.7315 275.868 12.4488 275.626 12.2064 275.383C11.7621 274.939 10.9542 274.898 10.5098 275.383C10.0655 275.828 10.0251 276.596 10.5098 277.081C12.6508 279.103 15.438 280.518 18.3868 280.922L18.4676 280.841Z" fill="#3D3D3D"/>
<path d="M16.3671 412.836C16.8114 414.21 17.5385 415.463 18.6292 416.434C19.8814 417.565 21.4568 418.172 22.9918 418.819C23.5978 419.061 24.2845 418.576 24.4461 417.97C24.648 417.283 24.2037 416.757 23.5978 416.514C22.3859 416.029 21.0933 415.504 20.1238 414.614C19.3159 413.887 18.8312 412.916 18.5484 411.865C18.2252 410.652 18.1444 409.399 18.1848 408.146C17.7001 407.54 16.9326 406.933 15.9227 406.367C15.7207 408.55 15.6804 410.774 16.3267 412.876L16.3671 412.836Z" fill="#3D3D3D"/>
<path d="M19.2756 425.611C20.649 424.964 19.4372 422.902 18.0637 423.549C13.3375 425.813 7.31868 424.519 3.84471 420.638C3.52155 420.274 3.158 420.274 2.83484 420.355C4.24866 422.053 5.90486 422.74 5.90486 422.74C5.50091 423.387 5.17775 423.953 4.85459 424.559C9.05566 427.308 14.6706 427.794 19.2756 425.611Z" fill="#3D3D3D"/>
<path d="M181.381 422.457C182.633 423.347 183.845 421.285 182.592 420.395C174.594 414.816 163.566 417.04 158.113 424.923C158.961 425.247 159.85 425.489 160.698 425.449C165.667 419.183 174.715 417.768 181.381 422.457Z" fill="#535353"/>
<path d="M175.079 409.925C175.887 411.218 177.947 410.046 177.139 408.712C175.402 405.842 172.494 403.942 169.262 403.093C165.829 402.163 162.233 402.486 158.8 403.173C158.881 404.225 159.042 405.074 159.163 405.518C164.819 404.427 171.767 404.427 175.119 409.925H175.079Z" fill="#535353"/>
<path d="M188.773 214.743C188.773 214.743 188.611 214.743 188.369 214.743C192.53 216.522 195.559 220.807 195.398 225.456C195.357 226.992 197.741 226.992 197.781 225.456C197.983 218.907 192.812 212.56 186.268 211.63C186.228 211.63 186.188 211.63 186.147 211.63C186.996 213.247 188.086 214.419 188.773 214.702V214.743Z" fill="#535353"/>
<path d="M206.385 203.787C206.385 203.787 205.941 203.221 205.092 202.493C208.324 206.293 208.324 212.438 205.092 216.238C204.082 217.411 205.779 219.068 206.789 217.936C210.546 213.611 210.869 207.061 207.88 202.291C207.153 202.817 206.627 203.342 206.425 203.787H206.385Z" fill="#535353"/>
<path d="M113.8 201.523C112.588 200.068 111.134 198.895 109.397 198.168C105.236 196.47 100.187 197.723 97.157 200.997C96.1067 202.129 97.8033 203.787 98.8536 202.695C101.398 199.987 105.559 198.976 108.993 200.553C109.72 200.917 110.407 201.361 111.012 201.887L110.932 201.766C111.74 201.887 112.749 201.766 113.84 201.523H113.8Z" fill="#535353"/>
<path d="M98.4497 190.325C98.2073 191.82 100.469 192.467 100.752 190.971C101.277 187.939 104.67 185.797 107.256 184.705C109.599 183.735 112.184 183.371 114.729 183.614C112.103 183.088 109.841 183.775 109.841 183.775C110.164 183.209 110.326 182.36 110.285 181.431C108.831 181.673 107.417 182.037 106.084 182.643C102.933 184.018 99.096 186.686 98.4497 190.325Z" fill="#535353"/>
<path d="M50.2989 118.001C70.4964 115.09 90.9766 114.726 111.295 116.828C113.234 117.03 113.315 113.998 111.376 113.796C90.8151 111.654 70.052 112.098 49.6122 115.05C47.6732 115.333 48.4003 118.284 50.2989 118.001Z" fill="#AAAAAA"/>
<path d="M68.3554 155.638C81.0798 143.308 97.3994 135.182 114.931 132.474C116.87 132.191 116.143 129.24 114.244 129.523C96.228 132.312 79.3429 140.761 66.2549 153.455C64.8411 154.83 66.982 157.013 68.3554 155.638Z" fill="#AAAAAA"/>
<path d="M85.2405 172.416C95.2181 162.228 106.69 153.657 119.293 147.027C121.03 146.138 119.576 143.47 117.839 144.359C104.994 151.111 93.2791 159.843 83.14 170.233C81.7665 171.607 83.8671 173.79 85.2405 172.416Z" fill="#AAAAAA"/>
<path d="M340.739 127.259C352.655 126.005 364.733 126.207 376.61 128.027C382.507 128.916 388.324 130.169 394.02 131.827C396.767 132.595 399.513 133.484 402.22 134.455C405.33 135.546 408.522 136.597 410.622 139.265C411.834 140.802 413.934 138.619 412.763 137.082C410.824 134.616 407.996 133.363 405.128 132.272C402.139 131.14 399.11 130.129 396.04 129.24C390.142 127.501 384.083 126.127 377.983 125.197C365.662 123.256 353.1 122.933 340.698 124.267C338.759 124.469 338.84 127.501 340.779 127.299L340.739 127.259Z" fill="#AAAAAA"/>
<path d="M331.933 145.451C351.807 150.868 369.662 162.309 382.992 177.994C384.244 179.49 386.385 177.307 385.133 175.811C371.439 159.721 353.019 148.078 332.66 142.499C330.761 141.974 330.074 144.925 331.933 145.451Z" fill="#AAAAAA"/>
<path d="M325.51 162.228C337.386 170.516 350.595 180.056 353.342 195.297C353.706 197.238 356.614 196.348 356.251 194.448C353.342 178.399 339.487 168.292 326.964 159.6C325.348 158.468 323.894 161.136 325.51 162.268V162.228Z" fill="#AAAAAA"/>
<defs>
<linearGradient id="paint0_linear_65_19579" x1="290.568" y1="544.102" x2="274.465" y2="-35.2578" gradientUnits="userSpaceOnUse">
<stop offset="0.14" stop-color="#666666"/>
<stop offset="0.4" stop-color="#686868"/>
<stop offset="0.59" stop-color="#717272"/>
<stop offset="0.75" stop-color="#818181"/>
<stop offset="0.9" stop-color="#979797"/>
<stop offset="0.98" stop-color="#A7A8A8"/>
</linearGradient>
<linearGradient id="paint1_linear_65_19579" x1="69.3653" y1="372.974" x2="360.272" y2="307.46" gradientUnits="userSpaceOnUse">
<stop stop-color="#AA3C00"/>
<stop offset="0.09" stop-color="#B94D0F"/>
<stop offset="0.39" stop-color="#EB823E"/>
<stop offset="0.54" stop-color="#FF9751"/>
<stop offset="0.77" stop-color="#FFC780"/>
<stop offset="0.89" stop-color="#FFDC95"/>
</linearGradient>
<linearGradient id="paint2_linear_65_19579" x1="269.604" y1="142.663" x2="269.075" y2="76.8904" gradientUnits="userSpaceOnUse">
<stop offset="0.09" stop-color="#FFCD00"/>
<stop offset="1" stop-color="#FF9000"/>
</linearGradient>
<linearGradient id="paint3_linear_65_19579" x1="161.201" y1="135.604" x2="165.495" y2="71.5091" gradientUnits="userSpaceOnUse">
<stop offset="0.09" stop-color="#FFCD00"/>
<stop offset="1" stop-color="#FF9000"/>
</linearGradient>
<linearGradient id="paint4_linear_65_19579" x1="269.139" y1="135.066" x2="268.723" y2="83.3617" gradientUnits="userSpaceOnUse">
<stop stop-color="#9D0000"/>
<stop offset="0.16" stop-color="#820300"/>
<stop offset="0.39" stop-color="#620800"/>
<stop offset="0.61" stop-color="#4A0B00"/>
<stop offset="0.82" stop-color="#3C0D00"/>
<stop offset="1" stop-color="#380E00"/>
</linearGradient>
<linearGradient id="paint5_linear_65_19579" x1="260.914" y1="152.193" x2="260.567" y2="108.978" gradientUnits="userSpaceOnUse">
<stop/>
<stop offset="0.48" stop-color="#808000"/>
<stop offset="0.84" stop-color="#DBDB00"/>
<stop offset="1" stop-color="#FFFF00"/>
</linearGradient>
<linearGradient id="paint6_linear_65_19579" x1="164.67" y1="129.518" x2="164.255" y2="77.8538" gradientUnits="userSpaceOnUse">
<stop stop-color="#9D0000"/>
<stop offset="0.16" stop-color="#820300"/>
<stop offset="0.39" stop-color="#620800"/>
<stop offset="0.61" stop-color="#4A0B00"/>
<stop offset="0.82" stop-color="#3C0D00"/>
<stop offset="1" stop-color="#380E00"/>
</linearGradient>
<linearGradient id="paint7_linear_65_19579" x1="168.337" y1="148.53" x2="167.989" y2="105.315" gradientUnits="userSpaceOnUse">
<stop/>
<stop offset="0.48" stop-color="#808000"/>
<stop offset="0.84" stop-color="#DBDB00"/>
<stop offset="1" stop-color="#FFFF00"/>
</linearGradient>
</defs>
</svg>
