<svg width="431" height="188" viewBox="0 0 431 188" fill="none" xmlns="http://www.w3.org/2000/svg">
<path d="M42.2782 170.394C40.3565 162.596 45.236 157.344 53.0494 159.308C56.8534 160.27 59.3761 163.558 59.3761 167.887C59.3761 173.068 55.7778 176.758 50.6848 176.758C46.3748 176.758 43.2273 174.219 42.2862 170.394H42.2782Z" fill="#0CBF1E"/>
<path d="M66.5729 166.846V38.8772C66.5729 33.1683 70.1949 29.5017 75.8336 29.5017H111.065C115.091 29.5017 118.515 31.9461 119.923 35.8178L150.678 124.377C150.829 124.802 151.438 124.802 151.58 124.377L182.351 35.8256C183.759 31.954 187.183 29.5096 191.209 29.5096H226.646C232.079 29.5096 235.907 33.1762 235.907 38.8851V166.846C235.907 172.555 232.079 176.222 226.646 176.222H207.919C202.486 176.222 198.856 172.555 198.856 166.846V79.1943C198.856 78.6581 198.105 78.5319 197.923 79.0366L166.234 169.898C165.024 173.769 161.402 176.214 157.574 176.214H144.692C140.864 176.214 137.242 173.769 136.032 169.898L104.549 79.0524C104.375 78.5398 103.616 78.666 103.616 79.2101V166.838C103.616 172.547 99.9936 176.214 94.5527 176.214H75.8256C70.187 176.214 66.5649 172.547 66.5649 166.838L66.5729 166.846Z" fill="#0CBF1E"/>
<path d="M18.0469 65.0008C28.0139 65.0008 36.0938 56.9446 36.0938 47.0067C36.0938 37.0689 28.0139 29.0127 18.0469 29.0127C8.07987 29.0127 0 37.0689 0 47.0067C0 56.9446 8.07987 65.0008 18.0469 65.0008Z" fill="#0CBF1E"/>
<path d="M11.7992 176.222H24.2628C29.5772 176.222 33.4602 172.366 33.4602 166.791L35.7062 80.8502C36.1174 74.8495 32.2344 70.7808 26.5087 70.7808H9.75881C3.83544 70.7808 0.158048 74.8495 0.363665 80.8502L2.60964 166.791C2.81526 172.366 6.49265 176.222 11.8071 176.222H11.7992Z" fill="#0CBF1E"/>
<path d="M387.792 135.098C385.911 143.814 376.291 170.101 355.709 152.036C355.709 152.036 355.709 160.382 350.283 161.262C344.856 162.143 337.225 157.97 334.573 153.938C334.573 153.938 332.8 170.488 319.202 173.394C305.589 176.299 299.407 169.978 299.407 169.978C299.407 169.978 292.1 178.817 277.392 167.073C277.392 167.073 275.958 173.904 268.435 174.151C260.911 174.397 259.801 166.316 259.801 166.316C259.801 166.316 254.051 176.933 243.984 176.809C233.917 176.686 230.602 174.415 230.602 174.415C230.602 174.415 227.287 177.831 218.993 176.809C210.699 175.806 205.503 168.974 202.96 163.164C202.96 163.164 199.969 168.094 195.113 166.703C190.256 165.312 191.027 161.262 191.027 161.262C191.027 161.262 184.382 164.414 178.308 156.966C172.234 149.518 174.099 144.078 174.099 144.078C174.099 144.078 168.241 151.156 164.479 137.88C160.718 124.604 172.558 99.6024 172.558 99.6024L203.314 88.9854L249.333 65.8673L318.909 42.626L357.513 59.564L386.157 84.9533L397.766 108.829L391.8 131.823L387.822 135.116L387.792 135.098Z" fill="url(#paint0_linear_65_22994)"/>
<g style="mix-blend-mode:multiply" opacity="0.16">
<path d="M176.242 98.317C179.156 99.8136 183.303 102.296 189.146 106.311C210.036 120.643 222.369 118.829 222.369 118.829L234.286 115.308L238.572 98.5987L217.467 87.7528L206.12 87.5415L203.283 88.9677L176.258 98.2994L176.242 98.317Z" fill="#A62700"/>
</g>
<g style="mix-blend-mode:multiply" opacity="0.16">
<path d="M389.318 91.5034L381.933 87.8059C381.933 87.8059 381.625 95.2713 386.913 109.815C392.201 124.358 377.493 126.77 377.493 126.77C376.614 116.329 369.816 113.882 369.816 113.882C375.273 116.822 374.533 134.535 361.999 139.747C349.466 144.976 346.074 137.387 346.074 137.387C346.074 137.387 343.561 144.976 337.965 143.286C332.353 141.595 332.06 133.179 332.06 133.179C332.06 133.179 330.873 142.775 318.493 142.441C306.113 142.106 296.663 129.975 296.663 129.975C296.663 129.975 300.502 142.951 290.62 148.163C280.737 153.392 274.401 145.98 274.401 145.98C274.401 145.98 274.987 157.935 268.126 157.812C261.266 157.688 261.22 149.677 261.22 149.677C252.17 147.494 256.857 137.211 256.857 137.211C276.22 128.795 277.608 100.606 277.608 100.606L239.883 133.672C239.883 133.672 223.649 131.647 219.826 148.973C215.987 166.298 203.407 155.575 203.407 155.575C198.797 158.269 194.804 153.568 194.804 153.568C182.471 158.305 183.087 144.289 183.087 144.289C183.087 144.289 178.37 147.318 176.458 143.11C174.547 138.902 178.216 134.517 178.216 134.517C178.216 134.517 175.703 133.162 173.945 129.799C172.172 126.436 168.981 126.436 168.981 126.436L169.135 107.719C165.959 116.206 162.028 129.429 164.418 137.88C168.179 151.138 174.038 144.078 174.038 144.078C174.038 144.078 172.157 149.519 178.247 156.966C184.336 164.414 190.965 161.263 190.965 161.263C190.965 161.263 190.195 165.312 195.051 166.703C199.907 168.094 202.898 163.164 202.898 163.164C205.442 168.974 210.637 175.806 218.931 176.81C227.226 177.813 230.54 174.415 230.54 174.415C230.54 174.415 233.855 176.686 243.922 176.81C253.989 176.933 259.74 166.316 259.74 166.316C259.74 166.316 260.85 174.397 268.373 174.151C275.897 173.904 277.33 167.073 277.33 167.073C292.038 178.817 299.345 169.978 299.345 169.978C299.345 169.978 305.543 176.299 319.141 173.394C332.754 170.489 334.511 153.938 334.511 153.938C337.163 157.988 344.794 162.143 350.221 161.263C355.648 160.382 355.648 152.036 355.648 152.036C376.229 170.101 385.849 143.832 387.73 135.098L391.708 131.806L397.042 111.294C397.088 110.096 397.134 108.917 397.18 107.772L389.256 91.4682L389.318 91.5034Z" fill="#A62700"/>
</g>
<path d="M191.109 39.7563C193.344 38.8759 196.659 37.661 198.894 37.1856C198.894 37.1856 197.784 34.7911 199.773 33.2768C201.762 31.7626 204.645 33.7875 204.645 33.7875C204.645 33.7875 204.537 28.611 207.189 28.1004C209.84 27.5898 214.157 30.6358 216.917 33.4001C216.917 33.4001 222.343 35.6714 233.952 26.5862C245.561 17.4833 259.174 10.4229 258.619 17.1136C258.619 17.1136 265.14 11.8139 267.021 17.3601C267.021 17.3601 288.589 5.24642 318.683 14.4549C348.777 23.6634 363.037 51.0776 363.037 51.0776C363.037 51.0776 368.125 56.3773 375.201 54.4934C382.277 52.5918 388.259 54.7398 386.27 62.3285C386.27 62.3285 393.578 65.1104 390.911 71.6778C390.911 71.6778 399.205 74.2133 401.194 94.0388C403.182 113.882 399.421 133.197 388.691 135.098C388.691 135.098 396.769 103.001 371.763 92.7711C371.763 92.7711 372.642 85.693 368.88 82.0308C365.118 78.3685 362.127 82.6646 362.127 82.6646C362.127 82.6646 356.485 64.0892 342.548 63.3321C328.611 62.575 327.609 73.0336 327.609 73.0336C327.609 73.0336 324.618 66.0964 319.531 72.0476C319.531 72.0476 317.095 67.2409 312.67 67.1176C308.246 66.9944 307.907 71.9243 307.907 71.9243C307.907 71.9243 304.253 65.8675 295.635 69.7763C287.001 73.685 286.678 86.2036 286.678 86.2036C286.678 86.2036 283.255 86.4501 283.687 91.1336C284.134 95.8171 283.579 101.751 278.491 100.606C278.491 100.606 271.076 133.584 242.863 138.637C242.863 138.637 242.524 142.546 238.331 143.057C238.331 143.057 239.549 147.476 234.785 152.019C230.021 156.561 232.904 164.661 229.142 169.573C229.142 169.573 224.825 173.235 220.956 169.573C217.086 165.911 220.401 158.709 221.064 156.438C221.727 154.167 217.749 139.641 224.825 110.959C224.825 110.959 206.233 115.132 192.851 107.807C179.469 100.483 177.033 101.487 174.043 105.659C171.052 109.832 172.27 118.037 174.49 119.182C174.49 119.182 170.404 122.333 174.829 129.799C174.829 129.799 176.494 133.584 174.058 138.761C171.622 143.937 169.973 144.571 170.959 152.283C171.961 159.995 170.08 161.632 170.08 161.632C170.08 161.632 166.211 164.168 161.786 161.386C157.362 158.604 159.135 151.913 160.121 148.251C161.123 144.589 156.606 143.074 158.919 114.762C161.231 86.4677 165.872 82.1716 165.872 82.1716C165.872 82.1716 160.013 79.6362 163.328 72.8223C163.328 72.8223 159.35 69.6706 160.676 65.4978C162.002 61.3249 163.775 63.9835 163.775 63.9835C163.775 63.9835 162.557 60.8319 166.319 59.6874C170.08 58.543 173.395 55.9019 174.397 52.7326C175.399 49.5634 175.168 36.3053 177.712 33.1536C179.531 30.8999 184.341 35.7418 186.946 38.6822C188.026 39.9147 189.629 40.3197 191.063 39.7563H191.109Z" fill="url(#paint1_linear_65_22994)"/>
<g style="mix-blend-mode:multiply" opacity="0.4">
<path d="M229.137 75.6572C210.976 77.4884 203.776 77.8229 206.212 86.0102L229.137 75.6572Z" fill="#952700"/>
</g>
<g style="mix-blend-mode:multiply" opacity="0.4">
<path d="M176.458 70.2866C188.39 74.6708 195.05 76.273 191.273 84.9357L185.661 77.1182L176.458 70.269V70.2866Z" fill="#952700"/>
</g>
<path d="M191.274 84.9357C191.274 84.9357 191.382 78.9141 184.305 74.3011C177.229 69.688 171.972 67.6632 168.981 73.5264C168.981 73.5264 171.232 70.4275 178.771 74.7236C186.309 79.0198 191.274 84.9357 191.274 84.9357Z" fill="#1C0A01"/>
<path d="M206.212 86.01C206.212 86.01 206.212 81.168 222.97 76.8543C233.13 74.2309 236.121 75.6923 238.511 80.7983C238.511 80.7983 236.476 77.8931 228.659 79.4602C220.843 81.0272 206.212 86.01 206.212 86.01Z" fill="#1C0A01"/>
<g style="mix-blend-mode:screen">
<path d="M202.713 70.9212C196.778 64.1425 207.801 56.5186 212.595 59.3885C217.39 62.2585 207.724 76.6611 202.713 70.9212Z" fill="#A99583"/>
</g>
<g style="mix-blend-mode:screen">
<path d="M193.34 69.4943C197.842 64.8637 190.904 54.3347 186.557 57.3631C182.209 60.3915 188.098 74.8821 193.34 69.4943Z" fill="#A99583"/>
</g>
<g style="mix-blend-mode:screen" opacity="0.42">
<path d="M180.728 47.3625L183.812 45.7603C184.336 45.4786 184.475 44.7039 184.074 44.2285L181.53 41.1296C181.037 40.531 180.173 40.8479 180.081 41.6579L179.541 46.3765C179.449 47.1336 180.127 47.6971 180.728 47.3802V47.3625Z" fill="#F37E88"/>
</g>
<g style="mix-blend-mode:screen" opacity="0.42">
<path d="M241.533 47.5384L238.85 45.1791C238.388 44.7741 238.418 43.9818 238.896 43.612L241.98 41.2351C242.566 40.7773 243.367 41.3231 243.29 42.133L242.889 46.8693C242.828 47.6264 242.057 47.9962 241.533 47.5384Z" fill="#F37E88"/>
</g>
<g style="mix-blend-mode:multiply" opacity="0.33">
<path d="M400.68 99.5671C397.35 88.8796 392.201 79.3718 384.292 77.3998C384.292 77.3998 385.325 66.4482 376.615 65.7792C376.615 65.7792 378.218 59.4406 366.717 54.0176C363.865 52.8908 362.123 51.0773 362.123 51.0773C362.123 51.0773 361.768 50.4082 361.075 49.2285C365.977 60.8668 360.55 71.5014 360.55 71.5014C360.55 71.5014 344.918 52.5386 332.214 61.8176C324.675 56.7291 324.12 47.7319 324.12 47.7319C324.706 61.0252 328.545 65.427 328.545 65.427C328.545 65.427 322.64 58.6835 318.663 67.4518C318.663 67.4518 314.392 58.7011 306.561 67.7864C306.561 67.7864 291.961 61.3598 283.543 72.2409C283.543 72.2409 261.436 68.9132 255.963 58.7539C250.49 48.5947 254.267 32.3786 248.624 30.9876C242.982 29.5966 233.47 39.0693 233.47 39.0693C233.47 39.0693 218.777 34.2977 222.385 32.7659C218.068 34.2449 215.987 33.3822 215.987 33.3822L218.5 35.1077C218.5 35.1077 225.391 35.9352 231.281 39.4918C232.683 40.3546 234.379 40.2489 235.643 39.1221C238.973 36.1641 245.418 30.97 248.301 32.0616C252.278 33.5758 249.488 51.535 250.952 56.7819C252.432 62.0465 263.486 66.8884 262.453 72.2233C261.42 77.5407 257.443 79.3894 257.443 79.3894C257.443 79.3894 258.769 83.5975 251.985 88.1577C249.472 98.3522 229.045 109.55 202.05 105.008C175.055 100.465 164.988 82.1361 164.988 82.1361C164.988 82.1361 161.35 85.5167 158.914 105.923C159.716 101.064 161.412 103.282 163.246 108.969C164.048 111.452 164.865 114.568 165.651 118.072C167.763 127.545 169.582 139.658 169.798 148.479C169.783 144.148 171.232 142.916 173.19 138.743C175.626 133.566 173.961 129.781 173.961 129.781C169.536 122.333 173.622 119.164 173.622 119.164C173.36 119.04 173.128 118.794 172.897 118.495C171.186 116.171 170.538 109.339 173.175 105.642C175.179 102.842 176.952 101.486 181.947 103.106C184.383 103.898 187.589 105.395 191.983 107.79C205.365 115.114 223.958 110.941 223.958 110.941C223.079 114.498 222.37 117.843 221.799 120.977C223.372 113.723 226.116 112.772 228.243 121.682C228.983 124.78 229.646 129.041 230.155 134.658C230.972 143.567 231.049 152.3 230.818 159.783C231.173 156.878 231.743 154.079 233.917 152.018C238.681 147.476 237.463 143.057 237.463 143.057C241.671 142.546 241.995 138.637 241.995 138.637C270.208 133.584 277.623 100.606 277.623 100.606C282.711 101.75 283.266 95.7992 282.819 91.1333C282.372 86.4674 285.81 86.2033 285.81 86.2033C285.81 86.2033 286.149 73.7023 294.767 69.7759C303.4 65.8672 307.039 71.924 307.039 71.924C307.039 71.924 307.378 66.994 311.802 67.1173C316.227 67.2405 318.663 72.0473 318.663 72.0473C323.75 66.1137 326.741 73.0332 326.741 73.0332C326.741 73.0332 327.743 62.5747 341.68 63.3318C355.617 64.0889 361.26 82.6643 361.26 82.6643C361.26 82.6643 364.25 78.3682 368.012 82.0305C371.774 85.6927 370.895 92.7708 370.895 92.7708C395.901 103 387.823 135.098 387.823 135.098C397.551 133.373 401.528 117.333 400.711 99.5671H400.68Z" fill="#952700"/>
</g>
<g style="mix-blend-mode:multiply" opacity="0.33">
<path d="M231.249 106.557C237.339 103.898 244.862 98.3523 244.862 98.3523C244.862 98.3523 219.193 115.026 195.528 107.578C171.848 100.131 165.003 82.189 165.003 82.189C166.884 89.5135 175.625 101.011 181.961 103.141C184.397 103.934 187.604 105.43 191.998 107.825C205.38 115.149 223.972 110.977 223.972 110.977C223.972 110.977 225.19 109.216 231.28 106.557H231.249Z" fill="#952700"/>
</g>
<g style="mix-blend-mode:multiply" opacity="0.33">
<path d="M275.835 74.8469C275.835 74.8469 279.936 85.8337 277.608 100.624C282.695 101.768 283.25 95.8169 282.803 91.1511C282.356 86.4852 285.794 86.2211 285.794 86.2211C285.794 86.2211 285.918 82.1362 287.613 77.8929C284.592 77.981 280.152 77.5408 275.835 74.8469Z" fill="#952700"/>
</g>
<g style="mix-blend-mode:multiply" opacity="0.33">
<path d="M371.743 76.7307C371.743 76.7307 372.513 60.1801 362.446 51.3942C362.23 51.2005 362.123 51.0948 362.123 51.0948C362.123 51.0948 361.768 50.4258 361.074 49.2461C365.977 60.8844 362.909 71.519 362.909 71.519C362.323 74.5474 363.356 78.421 365.561 79.1076C367.256 79.6182 369.553 81.2909 370.463 86.7315C371.234 89.8303 370.864 92.8059 370.864 92.8059C378.603 95.9752 383.166 101.24 385.787 106.98C385.787 106.98 387.529 81.2205 371.743 76.7483V76.7307Z" fill="#952700"/>
</g>
<g style="mix-blend-mode:screen" opacity="0.67">
<path d="M222.353 32.784C218.808 34.3159 233.454 39.0874 233.454 39.0874C233.454 39.0874 235.458 37.1154 238.156 35.0906C230.894 33.4355 227.657 30.7064 231.496 27.7308C231.604 27.6604 231.681 27.59 231.758 27.5195C227.904 30.3719 224.789 31.9565 222.369 32.784C222.369 32.784 222.369 32.784 222.353 32.784Z" fill="#A99583"/>
</g>
<g style="mix-blend-mode:screen" opacity="0.67">
<path d="M275.496 45.4081C285.902 48.19 279.843 57.962 279.843 57.962C293.41 42.2037 274.324 36.6574 256.101 36.7455C254.637 36.7455 253.203 36.7455 251.815 36.675C252.185 38.9992 252.355 41.8163 252.617 44.8095C261.543 44.8095 269.776 43.8939 275.496 45.4081Z" fill="#A99583"/>
</g>
<g style="mix-blend-mode:screen" opacity="0.67">
<path d="M351.223 36.2349C359.348 48.014 356.742 53.8243 351.223 52.6446C351.223 52.6446 362.647 55.4794 358.746 45.6898C356.958 43.084 354.46 39.7739 351.208 36.2349H351.223Z" fill="#A99583"/>
</g>
<g style="mix-blend-mode:screen" opacity="0.67">
<path d="M303.539 11.4792C291.221 11.127 309.166 16.8317 319.387 20.7933C337.98 28.0298 348.664 40.161 335.76 46.3939C335.76 46.3939 355.447 39.4039 330.965 24.3323C320.127 17.6592 317.984 15.3351 318.955 14.8421C318.555 14.7189 318.169 14.578 317.768 14.4547C312.773 12.9229 308.01 11.9898 303.539 11.4792Z" fill="#A99583"/>
</g>
<g style="mix-blend-mode:screen" opacity="0.67">
<path d="M296.293 25.7761C308.457 27.7129 312.588 37.4848 303.292 46.8341C303.292 46.8341 320.25 32.8541 303.739 24.7725C287.228 16.6908 268.034 16.8141 277.515 13.1694C270.269 15.0182 266.091 17.3599 266.091 17.3599C265.089 22.3251 284.129 23.8393 296.293 25.7761Z" fill="#A99583"/>
</g>
<g style="mix-blend-mode:multiply" opacity="0.33">
<path d="M195.328 95.394C195.328 95.394 196.793 97.7886 200.138 97.9999C201.88 98.1232 196.793 102.666 195.328 95.394Z" fill="#A62774"/>
</g>
<path d="M192.661 90.8158C192.661 90.4813 192.908 90.2172 193.201 90.2348C193.494 90.2348 193.725 90.5165 193.725 90.851C193.725 91.1503 193.802 92.1011 194.203 92.418C194.419 92.5941 194.758 92.5765 195.205 92.3652C195.775 92.1011 196.299 91.9779 196.777 91.9427L196.824 88.8086C196.824 88.4741 197.07 88.21 197.363 88.21C197.656 88.21 197.887 88.4917 197.887 88.8262L197.841 92.0131C198.812 92.2068 199.599 92.735 200.185 93.1399C200.477 93.3336 200.955 93.6682 201.079 93.6329C201.711 93.4217 202.25 92.1892 202.389 91.7842C202.497 91.4673 202.805 91.3264 203.083 91.4497C203.36 91.5729 203.484 91.9251 203.376 92.242C203.299 92.4533 202.682 94.1611 201.603 94.707C201.526 94.7422 201.464 94.7774 201.387 94.795C200.817 94.9887 200.277 94.6189 199.645 94.1788C198.658 93.4921 197.425 92.6645 195.606 93.4921C194.804 93.8442 194.141 93.8266 193.602 93.4041C192.661 92.6646 192.677 91.0095 192.677 90.8334L192.661 90.8158Z" fill="#1C0A01"/>
<path d="M198.504 86.2033C197.949 86.4322 197.317 86.4146 196.777 86.1328C196.423 85.9392 195.991 85.9039 195.652 86.3441C195.02 87.154 196.531 88.7387 197.193 89.3902C197.363 89.5662 197.61 89.5662 197.81 89.4254C198.535 88.8443 200.2 87.3477 199.629 86.5026C199.321 86.0448 198.889 86.0624 198.519 86.2209L198.504 86.2033Z" fill="#F9D4B9"/>
<path d="M198.504 86.2033C197.949 86.4322 197.317 86.4146 196.777 86.1328C196.423 85.9392 195.991 85.9039 195.652 86.3441C195.02 87.154 196.531 88.7387 197.193 89.3902C197.363 89.5662 197.61 89.5662 197.81 89.4254C198.535 88.8443 200.2 87.3477 199.629 86.5026C199.321 86.0448 198.889 86.0624 198.519 86.2209L198.504 86.2033Z" fill="#5E290B"/>
<g style="mix-blend-mode:multiply">
<path d="M197.178 89.3903C197.348 89.5663 197.595 89.5663 197.795 89.4255C198.412 88.9325 199.691 87.788 199.722 86.9429C197.317 89.0557 196.593 88.7916 195.529 87.0837C195.714 87.9113 196.685 88.9325 197.194 89.4079L197.178 89.3903Z" fill="#BF9788"/>
</g>
<path d="M213.073 49.9857C211.902 51.5704 210.175 52.8029 208.294 52.6268C206.66 52.4859 205.026 51.0422 204.841 49.1054C204.81 48.7356 204.501 48.4891 204.193 48.6828C203.7 48.9821 202.929 49.4399 202.359 49.0702C202.05 48.8765 201.819 48.2074 202.189 47.9609C202.605 47.6968 202.328 46.8517 201.85 47.063C200.616 47.6264 198.674 48.4187 197.78 46.7812C196.916 45.2142 197.78 43.4183 198.766 42.2386C199.152 41.7808 198.535 41.0766 198.15 41.5343C196.916 43.0485 195.976 45.3198 197.04 47.2742C197.965 48.9997 199.661 48.8765 201.171 48.3659C201.171 48.8061 201.31 49.2462 201.572 49.5808C202.235 50.4259 203.268 50.2322 204.116 49.8096C204.579 51.764 206.12 53.243 207.893 53.5424C210.129 53.9297 212.287 52.5564 213.69 50.6548C214.044 50.1618 213.443 49.4751 213.073 49.9505V49.9857Z" fill="#A62700"/>
<path d="M246.774 91.0807C246.235 90.9223 246.003 91.8731 246.543 92.0315C248.27 92.5421 249.78 93.7746 250.736 95.4825C251.029 96.0107 251.785 95.5177 251.492 94.9895C250.413 93.0703 248.717 91.6442 246.774 91.0807Z" fill="#A62700"/>
<path d="M252.864 93.4048C251.8 92.0843 250.382 91.1335 248.855 90.7285C248.316 90.5877 248.084 91.5385 248.624 91.6793C250.027 92.0491 251.276 92.8942 252.247 94.1091C252.617 94.5845 253.234 93.8802 252.864 93.4048Z" fill="#A62700"/>
<path d="M167.084 61.8353C167.285 61.9585 167.562 61.9057 167.67 61.6592C167.778 61.4303 167.732 61.1134 167.516 60.9902C167.408 60.9197 167.3 60.8493 167.192 60.7613C167.146 60.726 167.1 60.6908 167.054 60.6556C167.023 60.638 166.992 60.6028 166.977 60.5852C167.007 60.6204 166.915 60.5324 166.977 60.5852C166.776 60.4091 166.591 60.2154 166.422 60.0042C166.344 59.8985 166.267 59.7929 166.19 59.6872C166.237 59.7577 166.159 59.6344 166.19 59.6872C166.175 59.652 166.144 59.6168 166.129 59.5992C166.098 59.5464 166.067 59.4935 166.036 59.4407C165.897 59.1942 165.774 58.9477 165.666 58.666C165.574 58.4371 165.25 58.3491 165.08 58.49C164.864 58.6484 164.818 58.9125 164.926 59.159C165.373 60.3035 166.159 61.2719 167.131 61.8705L167.084 61.8353Z" fill="#A62700"/>
<path d="M267.432 95.3065C267.093 94.8135 266.353 95.3065 266.677 95.7995C268.728 98.8808 269.236 102.93 268.435 106.663C268.034 108.529 267.325 110.343 266.292 111.857C265.212 113.424 263.548 114.921 261.697 114.481C261.343 114.393 260.988 114.815 261.204 115.202C261.728 116.118 262.314 117.597 261.667 118.618C261.297 119.199 260.341 119.516 259.894 118.9C259.817 118.812 259.74 118.724 259.647 118.636C259.292 118.337 258.845 118.918 259.061 119.305C259.215 119.587 259.4 119.78 259.616 119.921C260.772 121.383 260.587 123.918 259.477 125.362C257.951 127.351 255.299 127.422 253.28 126.524C252.756 126.295 252.54 127.246 253.049 127.475C255.454 128.531 258.676 128.232 260.325 125.714C261.358 124.129 261.559 121.893 260.788 120.185C261.266 120.115 261.744 119.886 262.098 119.499C263.1 118.442 262.869 116.787 262.33 115.467C265.012 115.467 267.14 112.614 268.25 110.044C269.529 107.05 269.976 103.599 269.406 100.325C269.082 98.4934 268.404 96.7503 267.417 95.2713L267.432 95.3065Z" fill="#A62700"/>
<path d="M348.911 51.6059C349.651 49.5987 348.571 47.3098 346.706 46.8344C347.246 45.3202 347.384 43.6651 347.23 42.0276C347.061 40.3022 346.629 38.5062 345.411 37.3442C342.806 34.844 339.275 36.0413 336.423 37.2209C335.899 37.4322 336.13 38.4006 336.654 38.1717C339.136 37.1505 342.266 35.9004 344.656 37.9076C345.796 38.876 346.213 40.4782 346.367 42.0276C346.536 43.7003 346.429 45.4434 345.735 46.9576C345.581 47.2922 345.766 47.6971 346.105 47.6971C348.001 47.7499 348.911 50.1621 347.801 51.8524C347.554 52.2221 347.955 52.6623 348.294 52.5743C350.021 52.1165 350.776 54.6695 350.406 56.1661C349.974 57.9444 348.356 58.948 346.799 58.5431C346.259 58.4022 346.028 59.353 346.567 59.4938C348.695 60.0573 350.915 58.5783 351.316 56.0605C351.501 54.8984 351.316 53.7011 350.668 52.768C350.221 52.1165 349.604 51.6939 348.926 51.5883L348.911 51.6059Z" fill="#A62700"/>
<path d="M310.306 57.3812C309.921 55.1451 309.119 52.6097 306.899 52.2224C305.743 52.0287 304.587 52.5393 303.584 53.1379C302.49 53.7894 301.503 54.6521 300.64 55.6381C300.239 56.0783 300.856 56.7826 301.257 56.3424C301.997 55.5149 302.798 54.793 303.708 54.212C304.571 53.6485 305.573 53.1027 306.591 53.1907C308.842 53.3668 309.35 56.4481 309.628 58.4553C309.674 58.825 310.152 58.9306 310.352 58.6665C311.447 57.258 313.312 57.6101 313.975 59.318C314.207 59.8991 314.947 59.3884 314.731 58.825C313.945 56.8354 311.832 56.272 310.337 57.3812H310.306Z" fill="#A62700"/>
<path d="M392.093 93.0704C392.725 92.5774 393.172 91.7146 393.203 90.8343C393.264 89.3729 392.324 88.2284 391.276 87.4713C391.738 86.8375 391.908 85.693 391.954 85.0416C392.062 83.5098 391.784 81.9779 391.26 80.5694C390.135 77.5938 387.884 75.4633 385.232 74.3893C383.66 73.7378 381.979 73.4737 380.314 73.5089C379.759 73.5089 379.759 74.5125 380.314 74.4949C383.351 74.4597 386.543 75.4633 388.716 77.9988C389.734 79.196 390.505 80.6926 390.859 82.3125C391.044 83.1048 391.121 83.9323 391.091 84.7599C391.075 85.1648 390.967 87.1544 390.304 86.8903C389.842 86.6966 389.518 87.5594 389.965 87.7883C390.921 88.2989 392 89.056 392.278 90.3061C392.509 91.3449 391.707 92.8063 390.674 92.4013C390.135 92.2252 389.919 93.1584 390.443 93.3521C393.079 94.162 395.145 97.0496 395.176 100.201C395.222 103.353 393.264 106.311 390.643 107.226C390.119 107.42 390.335 108.371 390.875 108.177C393.866 107.138 396.101 103.793 396.039 100.201C395.993 97.1904 394.359 94.4261 392.077 93.0528L392.093 93.0704Z" fill="#A62700"/>
<path d="M381.24 56.4125C382.55 55.7083 383.413 54.106 383.413 52.4686C383.413 52.2045 383.213 51.9756 382.982 51.9756C382.75 51.9756 382.55 52.2045 382.55 52.4686C382.55 52.5566 382.55 52.6446 382.55 52.7327C382.55 52.7679 382.55 52.8207 382.55 52.8559C382.55 52.8912 382.55 52.8912 382.55 52.8559C382.55 52.8559 382.55 52.8912 382.55 52.9088C382.519 53.0848 382.488 53.2433 382.442 53.4194C382.427 53.5074 382.396 53.5778 382.365 53.6658C382.365 53.6658 382.319 53.8067 382.334 53.7363C382.334 53.7715 382.303 53.8067 382.303 53.8243C382.242 53.9828 382.165 54.1412 382.072 54.2997C381.764 54.8455 381.347 55.2681 380.808 55.5498C380.592 55.6555 380.546 56.0076 380.654 56.2189C380.777 56.4654 381.039 56.5182 381.24 56.3949V56.4125Z" fill="#A62700"/>
<path d="M383.243 55.9723C383.243 55.9723 383.089 56.0251 383.012 56.0251C383.012 56.0251 382.873 56.0427 382.981 56.0251C382.951 56.0251 382.904 56.0251 382.873 56.0251C382.796 56.0251 382.719 56.0251 382.642 56.0251C382.611 56.0251 382.581 56.0251 382.55 56.0251C382.534 56.0251 382.503 56.0251 382.488 56.0251C382.534 56.0251 382.534 56.0251 382.488 56.0251C382.272 55.9899 382.01 56.0955 381.948 56.3773C381.902 56.6061 382.01 56.9407 382.257 56.9935C383.012 57.1343 383.798 56.9231 384.415 56.3949C385.016 55.8842 385.494 55.1448 385.618 54.282C385.648 54.0355 385.556 53.7362 385.309 53.6658C385.109 53.6129 384.816 53.7362 384.77 54.0179C384.754 54.194 384.708 54.37 384.662 54.5285C384.662 54.5461 384.616 54.6694 384.662 54.5813C384.646 54.6165 384.631 54.6693 384.616 54.7046C384.585 54.775 384.554 54.8454 384.508 54.9159C384.492 54.9511 384.461 54.9863 384.446 55.0215C384.446 55.0215 384.369 55.1447 384.4 55.0919C384.431 55.0391 384.369 55.1447 384.353 55.1447C384.323 55.18 384.307 55.2152 384.276 55.2504C384.23 55.3208 384.168 55.3736 384.107 55.4441C384.076 55.4793 384.045 55.4969 384.014 55.5321C384.014 55.5321 384.014 55.5321 383.999 55.5497C383.999 55.5497 383.999 55.5497 383.983 55.5497C383.86 55.6554 383.737 55.7434 383.598 55.8138C383.567 55.8314 383.521 55.849 383.49 55.8666C383.444 55.8842 383.552 55.849 383.475 55.8666C383.398 55.9018 383.336 55.9195 383.259 55.9547L383.243 55.9723Z" fill="#A62700"/>
<path d="M401.019 91.0629C401.05 91.327 401.204 91.5559 401.451 91.5559C401.667 91.5559 401.914 91.327 401.883 91.0629C401.775 89.9889 401.204 89.1261 400.434 88.5451C399.57 87.8936 398.522 87.6999 397.535 87.5239C397.304 87.4887 397.073 87.5943 396.996 87.876C396.934 88.1049 397.073 88.4394 397.304 88.4923C398.167 88.6507 399.077 88.7916 399.848 89.3022C400.403 89.6719 400.942 90.3058 401.019 91.0805V91.0629Z" fill="#A62700"/>
<path d="M398.938 113.935C398.722 113.829 398.475 113.864 398.352 114.111C398.244 114.322 398.29 114.674 398.506 114.78C399.847 115.484 400.819 116.84 401.142 118.46C401.189 118.724 401.451 118.882 401.682 118.812C401.913 118.742 402.037 118.46 401.99 118.196C401.62 116.347 400.464 114.71 398.953 113.917L398.938 113.935Z" fill="#A62700"/>
<path d="M330.95 16.8496C330.734 16.9905 330.703 17.2898 330.796 17.5187C331.52 19.3322 332.461 21.8677 331.15 23.6284C330.796 24.1037 331.397 24.808 331.767 24.3326C332.476 23.3995 332.738 22.167 332.661 20.9345C332.569 19.5435 332.06 18.2582 331.567 17.0081C331.474 16.7616 331.166 16.7088 330.981 16.832L330.95 16.8496Z" fill="#A62700"/>
<path d="M334.126 19.6666C333.894 19.7371 333.771 20.0188 333.817 20.2829C334.018 21.2689 333.894 22.3605 333.494 23.2761C333.386 23.5226 333.432 23.8043 333.648 23.9451C333.848 24.0684 334.141 23.998 334.234 23.7691C334.758 22.607 334.896 21.2865 334.65 20.0188C334.604 19.7547 334.341 19.5962 334.11 19.6666H334.126Z" fill="#A62700"/>
<path d="M252.895 17.3778C253.08 17.2545 253.188 16.92 253.049 16.7087C252.278 15.4586 251.923 13.874 252.124 12.3598C252.155 12.0957 252.062 11.8316 251.815 11.7435C251.615 11.6731 251.322 11.8316 251.276 12.0957C251.045 13.874 251.384 15.7227 252.293 17.2193C252.432 17.4306 252.679 17.5362 252.879 17.3954L252.895 17.3778Z" fill="#A62700"/>
<path d="M166.175 155.188C166.283 154.572 165.45 154.308 165.342 154.924C164.926 157.407 164.71 160.277 165.45 162.689C165.774 162.689 166.067 162.653 166.36 162.601C165.574 160.329 165.79 157.512 166.19 155.17L166.175 155.188Z" fill="#A62700"/>
<path d="M161.319 154.043C161.365 153.409 160.502 153.409 160.456 154.043C160.255 156.491 160.301 159.132 161.026 161.456C161.411 161.685 161.797 161.878 162.182 162.037C161.149 159.625 161.118 156.702 161.334 154.043H161.319Z" fill="#A62700"/>
<path d="M225.869 163.287C226.085 162.706 225.237 162.442 225.036 163.023C224.111 165.612 224.003 168.481 224.635 171.158C224.928 171.123 225.206 171.07 225.483 170.999C224.867 168.464 225.005 165.735 225.884 163.287H225.869Z" fill="#A62700"/>
<path d="M221.629 163.129C221.814 162.53 220.967 162.266 220.797 162.865C220.134 165.136 220.026 167.548 220.427 169.873C220.766 170.154 221.105 170.401 221.46 170.577C220.874 168.147 220.92 165.541 221.645 163.129H221.629Z" fill="#A62700"/>
<path d="M144.792 84.7243C151.73 81.6783 158.991 79.6358 166.375 78.6146C167.085 78.509 166.853 77.2765 166.16 77.3821C158.682 78.421 151.344 80.5162 144.314 83.5974C143.651 83.8968 144.144 85.0236 144.807 84.7243H144.792Z" fill="#6D2613"/>
<path d="M154.258 98.3166C157.773 92.1366 162.937 87.3474 168.935 84.6359C169.598 84.3366 169.104 83.2098 168.441 83.5091C162.259 86.3086 156.956 91.2914 153.333 97.6476C152.947 98.3342 153.872 99.0209 154.258 98.3342V98.3166Z" fill="#6D2613"/>
<path d="M161.595 103.563C164.309 98.5102 167.701 93.9852 171.647 90.1292C172.187 89.601 171.447 88.6502 170.907 89.1785C166.883 93.1048 163.43 97.7355 160.655 102.877C160.285 103.563 161.21 104.25 161.58 103.563H161.595Z" fill="#6D2613"/>
<path d="M245.618 84.6537C249.795 86.0975 253.819 88.1223 257.55 90.7281C259.4 92.0134 261.173 93.4396 262.869 94.989C263.686 95.7285 264.472 96.5032 265.243 97.3132C266.122 98.2287 267.047 99.1619 267.386 100.518C267.571 101.292 268.589 100.799 268.404 100.025C268.095 98.7569 267.34 97.8238 266.523 96.9434C265.675 96.0278 264.796 95.1475 263.902 94.3199C262.16 92.7001 260.325 91.2035 258.413 89.8478C254.544 87.1187 250.381 84.9706 246.018 83.474C245.34 83.2451 244.924 84.4072 245.618 84.6537Z" fill="#6D2613"/>
<path d="M240.098 90.2002C246.003 95.4823 250.397 102.736 252.663 110.906C252.879 111.681 253.897 111.188 253.681 110.413C251.353 102.05 246.805 94.6019 240.761 89.179C240.206 88.686 239.543 89.6896 240.098 90.2002Z" fill="#6D2613"/>
<path d="M235.566 95.6049C238.387 100.693 241.471 106.486 240.253 112.772C240.099 113.564 241.193 113.705 241.347 112.913C242.627 106.292 239.405 100.183 236.429 94.8302C236.044 94.1435 235.181 94.9359 235.566 95.6049Z" fill="#6D2613"/>
<g style="mix-blend-mode:multiply" opacity="0.16">
<path d="M188.252 121.541C188.252 121.541 193.525 122.333 194.187 120.062C194.187 120.062 198.612 125.503 202.482 123.971C202.482 123.971 206.243 132.176 210.884 132.81C210.884 132.81 204.918 135.961 204.918 140.011C204.918 140.011 204.177 132.933 199.568 134.2C199.568 134.2 200.755 125.626 192.661 128.073C192.661 128.073 195.698 123.495 188.252 121.523V121.541Z" fill="#A62700"/>
</g>
<g style="mix-blend-mode:multiply" opacity="0.16">
<path d="M295.075 121.964C295.075 121.964 295.738 110.097 305.358 108.23C314.978 106.364 330.133 120.819 330.133 120.819C330.133 120.819 337.98 116.911 341.418 120.819C341.418 120.819 341.418 113.477 349.82 113.425C349.82 113.425 352.579 105.026 359.332 108.952C359.332 108.952 358.114 100.659 363.649 97.1556C363.649 97.1556 358.006 96.4689 359.44 90.7114C359.44 90.7114 355.555 104.463 343.73 103.987C343.73 103.987 345.611 110.96 341.526 113.425C337.44 115.889 331.905 109.076 331.905 109.076C331.905 109.076 328.699 114.252 321.622 111.593C314.546 108.952 314.731 100.906 314.731 100.906C314.731 100.906 310.892 107.139 304.155 106.329C297.403 105.537 295.075 100.906 295.075 100.906C295.075 100.906 295.645 109.287 290.666 112.157C290.666 112.157 293.98 113.759 295.09 121.964H295.075Z" fill="#A62700"/>
</g>
<path d="M310.546 27.0079H328.79C334.224 27.0079 337.853 30.6193 337.853 36.2415V103.494C337.853 130.998 346.711 145.452 365.438 145.452C384.165 145.452 393.022 130.998 393.022 103.494V36.2415C393.022 30.6193 396.85 27.0079 402.283 27.0079H420.804C426.245 27.0079 430.065 30.6193 430.065 36.2415V103.494C430.065 149.063 410.334 174.761 365.438 174.761C320.542 174.761 300.803 149.063 300.803 103.494V36.7146C300.803 31.3526 305.16 27 310.546 27V27.0079Z" fill="#0CBF1E"/>
<defs>
<linearGradient id="paint0_linear_65_22994" x1="292.392" y1="173.552" x2="261.961" y2="70.0793" gradientUnits="userSpaceOnUse">
<stop stop-color="#F3B888"/>
<stop offset="0.08" stop-color="#F4BF94"/>
<stop offset="0.35" stop-color="#F9D4B8"/>
<stop offset="0.6" stop-color="#FCE2D2"/>
<stop offset="0.82" stop-color="#FEEBE2"/>
<stop offset="1" stop-color="#FFEFE8"/>
</linearGradient>
<linearGradient id="paint1_linear_65_22994" x1="282.299" y1="138.039" x2="260.966" y2="38.9956" gradientUnits="userSpaceOnUse">
<stop stop-color="#FF5424"/>
<stop offset="0.41" stop-color="#FF772E"/>
<stop offset="1" stop-color="#FFB140"/>
</linearGradient>
</defs>
</svg>
