<svg width="110" height="40" viewBox="0 0 110 40" fill="none" xmlns="http://www.w3.org/2000/svg">
<g clip-path="url(#clip0_537_6857)">
<path d="M72.882 2.11387C72.6955 1.54629 72.4789 1.03485 72.2563 0.575567C71.9113 -0.128404 70.9406 -0.204617 70.4833 0.431163L69.7031 1.52021C69.4946 1.45804 69.2799 1.40389 69.0593 1.36377C68.6983 1.29558 68.3233 1.25948 67.9402 1.25948C67.5571 1.25948 67.1861 1.29558 66.8251 1.36377C66.6065 1.40389 66.3919 1.45804 66.1813 1.52222L65.4031 0.433169C64.9478 -0.202611 63.9751 -0.126398 63.6301 0.575567C63.4055 1.03285 63.1909 1.54629 63.0024 2.11387C62.4629 3.74645 62.3686 5.19249 62.3927 6.19731C62.3927 6.25146 62.3927 6.3016 62.3927 6.35375C62.3927 7.72158 62.9803 8.96305 63.937 9.87561C64.1797 10.1083 64.4464 10.3188 64.7332 10.5054C65.3489 10.9065 66.0589 11.1973 66.8251 11.3417C67.1841 11.4099 67.5571 11.446 67.9402 11.446C68.3233 11.446 68.6983 11.4099 69.0593 11.3417C69.8275 11.1973 70.5375 10.9085 71.1532 10.5054C71.44 10.3168 71.7047 10.1063 71.9494 9.87561C72.9041 8.96305 73.4938 7.72158 73.4938 6.35375C73.4978 6.30361 73.4978 6.25146 73.4978 6.19731C73.5178 5.19249 73.4236 3.74645 72.884 2.11387H72.882ZM65.7822 4.54268C66.067 4.64697 66.2816 4.81544 66.438 4.99394C66.44 4.99594 66.444 4.99996 66.446 5.00196C66.7408 5.3369 66.5463 5.88243 66.1051 5.95062C65.9506 5.97469 65.7781 5.9807 65.5956 5.95062C65.4994 5.93658 65.3991 5.91051 65.2988 5.8744C65.02 5.77212 64.8094 5.60766 64.653 5.43517C64.3361 5.0862 64.5407 4.52663 65.008 4.46245C65.2386 4.43036 65.5054 4.44039 65.7842 4.54268H65.7822ZM69.7773 5.95062C69.3361 5.88243 69.1416 5.3369 69.4364 5.00196C69.4384 4.99996 69.4424 4.99594 69.4444 4.99394C69.6009 4.81744 69.8154 4.64697 70.1002 4.54268C70.379 4.44039 70.6458 4.43237 70.8764 4.46245C71.3437 4.52663 71.5483 5.0862 71.2314 5.43517C71.075 5.60766 70.8644 5.77212 70.5856 5.8744C70.4853 5.91051 70.3871 5.93658 70.2888 5.95062C70.1063 5.9787 69.9338 5.97268 69.7794 5.95062H69.7773Z" fill="#0CBF1E"/>
<path d="M10.7221 38.2532C10.2347 36.2696 11.4722 34.9339 13.4537 35.4333C14.4184 35.6779 15.0582 36.5143 15.0582 37.6154C15.0582 38.9331 14.1457 39.8717 12.854 39.8717C11.761 39.8717 10.9627 39.2259 10.7241 38.2532H10.7221Z" fill="#0CBF1E"/>
<path d="M16.8832 37.3506V4.80143C16.8832 3.34936 17.8018 2.41675 19.2318 2.41675H28.1668C29.1877 2.41675 30.0561 3.03849 30.4131 4.02325L38.213 26.5483C38.2511 26.6566 38.4055 26.6566 38.4416 26.5483L46.2454 4.02525C46.6024 3.04049 47.4709 2.41875 48.4917 2.41875H57.4789C58.8568 2.41875 59.8275 3.35137 59.8275 4.80343V37.3506C59.8275 38.8026 58.8568 39.7352 57.4789 39.7352H52.7296C51.3517 39.7352 50.4312 38.8026 50.4312 37.3506V15.0561C50.4312 14.9198 50.2406 14.8877 50.1945 15.016L42.158 38.1267C41.8511 39.1115 40.9326 39.7332 39.9619 39.7332H36.6947C35.724 39.7332 34.8054 39.1115 34.4986 38.1267L26.5142 15.02C26.4701 14.8897 26.2775 14.9218 26.2775 15.0601V37.3486C26.2775 38.8006 25.359 39.7332 23.9791 39.7332H19.2298C17.7998 39.7332 16.8812 38.8006 16.8812 37.3486L16.8832 37.3506Z" fill="#0CBF1E"/>
<path d="M78.7566 2.41875H83.3835C84.7614 2.41875 85.682 3.33733 85.682 4.76733V21.8732C85.682 28.8688 87.9282 32.5451 92.6775 32.5451C97.4268 32.5451 99.6731 28.8688 99.6731 21.8732V4.76733C99.6731 3.33733 100.644 2.41875 102.022 2.41875H106.719C108.099 2.41875 109.067 3.33733 109.067 4.76733V21.8732C109.067 33.4637 104.063 40 92.6775 40C81.2917 40 76.2856 33.4637 76.2856 21.8732V4.88767C76.2856 3.52385 77.3907 2.41675 78.7566 2.41675V2.41875Z" fill="#0CBF1E"/>
<path d="M4.57682 11.4461C7.10452 11.4461 9.15363 9.397 9.15363 6.8693C9.15363 4.34159 7.10452 2.29248 4.57682 2.29248C2.04911 2.29248 0 4.34159 0 6.8693C0 9.397 2.04911 11.4461 4.57682 11.4461Z" fill="#0CBF1E"/>
<path d="M2.99241 39.7354H6.15326C7.50103 39.7354 8.48579 38.7546 8.48579 37.3366L9.05539 15.4774C9.15968 13.9512 8.17492 12.9163 6.72285 12.9163H2.47496C0.972754 12.9163 0.0401427 13.9512 0.0922887 15.4774L0.661884 37.3366C0.71403 38.7546 1.64664 39.7354 2.99441 39.7354H2.99241Z" fill="#0CBF1E"/>
<path d="M72.4288 37.4127C72.4609 38.3935 72.0938 39.1736 71.436 39.6109C71.085 39.7292 70.6839 39.4504 70.6839 39.0292V33.0726C70.6839 32.8138 70.4833 32.6053 70.2346 32.6053H69.3381C69.0914 32.6053 68.8889 32.8138 68.8889 33.0726V39.3963C68.8889 39.7292 68.6301 40 68.3093 40H67.5832C67.2643 40 67.0036 39.7292 67.0036 39.3963V33.0726C67.0036 32.8138 66.803 32.6053 66.5543 32.6053H65.6578C65.4111 32.6053 65.2086 32.8138 65.2086 33.0726V39.0453C65.2086 39.4665 64.8115 39.7452 64.4585 39.6269H64.4565C63.7866 39.1917 63.3995 38.4035 63.4657 37.4107L64.0373 15.3349C64.0373 13.9029 65.02 12.9121 66.3678 12.9121H69.5287C70.8764 12.9121 71.8091 13.9029 71.8592 15.3349L72.4308 37.4107L72.4288 37.4127Z" fill="#0CBF1E"/>
</g>
<defs>
<clipPath id="clip0_537_6857">
<rect width="109.067" height="40" fill="white"/>
</clipPath>
</defs>
</svg>
