<svg width="238" height="150" viewBox="0 0 238 150" fill="none" xmlns="http://www.w3.org/2000/svg">
<path d="M224.893 112.045C223.158 119.845 214.284 143.371 195.298 127.204C195.298 127.204 195.298 134.673 190.292 135.461C185.286 136.249 178.246 132.514 175.8 128.906C175.8 128.906 174.164 143.718 161.621 146.318C149.063 148.918 143.36 143.261 143.36 143.261C143.36 143.261 136.619 151.171 123.052 140.661C123.052 140.661 121.729 146.775 114.789 146.996C107.849 147.216 106.825 139.984 106.825 139.984C106.825 139.984 101.52 149.485 92.2331 149.375C82.9463 149.265 79.8887 147.232 79.8887 147.232C79.8887 147.232 76.831 150.289 69.1798 149.375C61.5285 148.477 56.7358 142.363 54.3892 137.163C54.3892 137.163 51.6302 141.575 47.1503 140.33C42.6705 139.085 43.3816 135.461 43.3816 135.461C43.3816 135.461 37.2521 138.282 31.6487 131.616C26.0454 124.951 27.7662 120.082 27.7662 120.082C27.7662 120.082 22.3619 126.416 18.8918 114.535C15.4218 102.654 26.344 80.2782 26.344 80.2782L54.7163 70.7764L97.168 50.0868L161.351 29.2869L196.962 44.4456L223.386 67.168L234.095 88.5352L228.591 109.114L224.922 112.061L224.893 112.045Z" fill="url(#paint0_linear_155_5885)"/>
<g style="mix-blend-mode:multiply" opacity="0.16">
<path d="M29.7432 79.128C32.4311 80.4674 36.2567 82.6892 41.6467 86.2819C60.9171 99.1085 72.2945 97.4855 72.2945 97.4855L83.2878 94.334L87.2415 79.3801L67.772 69.6735L57.3048 69.4844L54.688 70.7607L29.7574 79.1122L29.7432 79.128Z" fill="#A62700"/>
</g>
<path d="M42.5989 26.7185C44.6611 25.9306 47.7188 24.8433 49.7809 24.4179C49.7809 24.4179 48.7569 22.2748 50.5915 20.9197C52.4261 19.5645 55.0856 21.3767 55.0856 21.3767C55.0856 21.3767 54.986 16.7439 57.4322 16.287C59.8783 15.83 63.8604 18.5561 66.4061 21.03C66.4061 21.03 71.4121 23.0627 82.121 14.9318C92.8299 6.78519 105.388 0.466438 104.876 6.4543C104.876 6.4543 110.891 1.71128 112.627 6.6749C112.627 6.6749 132.523 -4.16629 160.283 4.0749C188.044 12.3161 201.199 36.8506 201.199 36.8506C201.199 36.8506 205.892 41.5936 212.42 39.9075C218.948 38.2057 224.466 40.1281 222.631 46.9196C222.631 46.9196 229.372 49.4093 226.912 55.2868C226.912 55.2868 234.563 57.556 236.398 75.2989C238.233 93.0577 234.762 110.344 224.864 112.045C224.864 112.045 232.316 83.3195 209.249 74.1644C209.249 74.1644 210.059 67.8298 206.589 64.5523C203.119 61.2747 200.36 65.1196 200.36 65.1196C200.36 65.1196 195.155 48.4954 182.299 47.8178C169.442 47.1402 168.518 56.5002 168.518 56.5002C168.518 56.5002 165.759 50.2917 161.066 55.6178C161.066 55.6178 158.819 51.316 154.737 51.2057C150.655 51.0954 150.342 55.5075 150.342 55.5075C150.342 55.5075 146.972 50.0869 139.022 53.585C131.058 57.0832 130.759 68.2868 130.759 68.2868C130.759 68.2868 127.602 68.5074 128 72.6989C128.413 76.8904 127.901 82.2007 123.207 81.1765C123.207 81.1765 116.367 110.69 90.3412 115.213C90.3412 115.213 90.0283 118.711 86.16 119.168C86.16 119.168 87.2835 123.123 82.889 127.188C78.4945 131.254 81.1539 138.502 77.6839 142.899C77.6839 142.899 73.7018 146.176 70.1321 142.899C66.5625 139.621 69.6201 133.176 70.2317 131.144C70.8432 129.111 67.174 116.111 73.7018 90.4419C73.7018 90.4419 56.5504 94.1764 44.206 87.6213C31.8616 81.0662 29.6145 81.9643 26.8555 85.6989C24.0965 89.4334 25.22 96.7764 27.268 97.8007C27.268 97.8007 23.4992 100.621 27.5808 107.302C27.5808 107.302 29.1168 110.69 26.8698 115.323C24.6227 119.956 23.101 120.523 24.0112 127.425C24.9356 134.327 23.2006 135.792 23.2006 135.792C23.2006 135.792 19.6309 138.061 15.5493 135.571C11.4676 133.082 13.1031 127.094 14.0133 123.816C14.9377 120.539 10.7708 119.184 12.904 93.8455C15.0373 68.5232 19.318 64.6783 19.318 64.6783C19.318 64.6783 13.9138 62.4093 16.9714 56.3111C16.9714 56.3111 13.3022 53.4905 14.5253 49.756C15.7484 46.0214 17.3839 48.4008 17.3839 48.4008C17.3839 48.4008 16.2604 45.5802 19.7305 44.556C23.2005 43.5317 26.2582 41.1681 27.1826 38.3318C28.107 35.4954 27.8937 23.63 30.2403 20.8094C31.9184 18.7924 36.3556 23.1258 38.7591 25.7573C39.7546 26.8603 41.2337 27.2227 42.5563 26.7185H42.5989Z" fill="url(#paint1_linear_155_5885)"/>
<g style="mix-blend-mode:multiply" opacity="0.4">
<path d="M78.5381 58.8484C61.7849 60.4872 55.1434 60.7865 57.3904 68.1138L78.5381 58.8484Z" fill="#952700"/>
</g>
<g style="mix-blend-mode:multiply" opacity="0.4">
<path d="M29.9424 54.0421C40.95 57.9657 47.0937 59.3997 43.6094 67.1524L38.4327 60.156L29.9424 54.0264V54.0421Z" fill="#952700"/>
</g>
<path d="M43.6095 67.1522C43.6095 67.1522 43.709 61.7632 37.1813 57.6347C30.6535 53.5062 25.8039 51.6941 23.0449 56.9413C23.0449 56.9413 25.1213 54.168 32.0757 58.0129C39.0301 61.8577 43.6095 67.1522 43.6095 67.1522Z" fill="#1C0A01"/>
<path d="M57.3906 68.1139C57.3906 68.1139 57.3906 63.7805 72.8496 59.92C82.2217 57.5721 84.9807 58.88 87.1851 63.4496C87.1851 63.4496 85.3078 60.8496 78.0974 62.2521C70.887 63.6545 57.3906 68.1139 57.3906 68.1139Z" fill="#1C0A01"/>
<g style="mix-blend-mode:screen">
<path d="M54.1615 54.6093C48.6861 48.5426 58.8546 41.7196 63.2775 44.2881C67.7005 46.8566 58.7835 59.7462 54.1615 54.6093Z" fill="#A99583"/>
</g>
<g style="mix-blend-mode:screen">
<path d="M45.5148 53.3326C49.6675 49.1884 43.2677 39.7654 39.2572 42.4757C35.2467 45.186 40.6794 58.1544 45.5148 53.3326Z" fill="#A99583"/>
</g>
<g style="mix-blend-mode:screen" opacity="0.42">
<path d="M33.8812 33.5258L36.7256 32.0918C37.2091 31.8397 37.3371 31.1464 36.9673 30.7209L34.6208 27.9476C34.1657 27.4119 33.3693 27.6955 33.2839 28.4204L32.7862 32.6434C32.7008 33.3209 33.3266 33.8252 33.8812 33.5416V33.5258Z" fill="#F37E88"/>
</g>
<g style="mix-blend-mode:screen" opacity="0.42">
<path d="M89.9715 33.6835L87.4969 31.572C87.0703 31.2095 87.0987 30.5005 87.5396 30.1696L90.3839 28.0423C90.9243 27.6326 91.6639 28.1211 91.5928 28.8459L91.223 33.0847C91.1661 33.7623 90.455 34.0932 89.9715 33.6835Z" fill="#F37E88"/>
</g>
<g style="mix-blend-mode:multiply" opacity="0.33">
<path d="M236.782 80.2467C233.711 70.6819 228.96 62.1728 221.665 60.408C221.665 60.408 222.618 50.6068 214.582 50.008C214.582 50.008 216.061 44.3353 205.452 39.482C202.821 38.4735 201.214 36.8505 201.214 36.8505C201.214 36.8505 200.887 36.2517 200.247 35.1959C204.769 45.6117 199.763 55.1292 199.763 55.1292C199.763 55.1292 185.343 38.1584 173.624 46.4626C166.669 41.9087 166.157 33.8566 166.157 33.8566C166.698 45.7535 170.239 49.6929 170.239 49.6929C170.239 49.6929 164.792 43.6577 161.123 51.505C161.123 51.505 157.184 43.6735 149.959 51.8044C149.959 51.8044 136.491 46.0529 128.726 55.791C128.726 55.791 108.332 52.8129 103.283 43.7208C98.2347 34.6287 101.719 20.116 96.5138 18.8711C91.3087 17.6263 82.5339 26.1039 82.5339 26.1039C82.5339 26.1039 68.9806 21.8336 72.3085 20.4627C68.3264 21.7863 66.4065 21.0142 66.4065 21.0142L68.7246 22.5584C68.7246 22.5584 75.0818 23.299 80.5144 26.482C81.8086 27.2542 83.373 27.1596 84.5392 26.1511C87.6111 23.5039 93.5557 18.8554 96.2152 19.8324C99.8844 21.1875 97.3103 37.2602 98.6613 41.9559C100.027 46.6674 110.224 51.0008 109.271 55.7753C108.318 60.5341 104.649 62.1886 104.649 62.1886C104.649 62.1886 105.872 65.9546 99.6142 70.0358C97.296 79.1594 78.4523 89.1812 53.5501 85.1158C28.6479 81.0504 19.3612 64.6468 19.3612 64.6468C19.3612 64.6468 16.0048 67.6722 13.7578 85.9352C14.4973 81.5861 16.0617 83.5716 17.7541 88.6612C18.4936 90.883 19.2474 93.6721 19.9727 96.8079C21.9211 105.285 23.5992 116.127 23.7983 124.021C23.7841 120.145 25.1209 119.042 26.9271 115.307C29.1741 110.675 27.6382 107.287 27.6382 107.287C23.5566 100.621 27.3253 97.7848 27.3253 97.7848C27.0835 97.6745 26.8702 97.4539 26.6569 97.1861C25.0783 95.1061 24.481 88.9921 26.9129 85.6831C28.7617 83.1776 30.3972 81.9643 35.005 83.414C37.2521 84.1231 40.2102 85.4625 44.2633 87.6055C56.6078 94.1606 73.7591 90.4261 73.7591 90.4261C72.9485 93.6091 72.2943 96.603 71.7681 99.4079C73.2187 92.9158 75.7502 92.0649 77.7128 100.038C78.3954 102.811 79.0069 106.625 79.4762 111.651C80.23 119.625 80.3011 127.44 80.0878 134.137C80.4149 131.537 80.9411 129.032 82.9463 127.188C87.3408 123.123 86.2173 119.168 86.2173 119.168C90.0999 118.711 90.3985 115.213 90.3985 115.213C116.424 110.69 123.265 81.1764 123.265 81.1764C127.958 82.2006 128.47 76.8746 128.058 72.6989C127.645 68.5231 130.817 68.2867 130.817 68.2867C130.817 68.2867 131.129 57.0989 139.079 53.585C147.044 50.0868 150.4 55.5074 150.4 55.5074C150.4 55.5074 150.713 51.0953 154.794 51.2056C158.876 51.3159 161.123 55.6177 161.123 55.6177C165.816 50.3074 168.575 56.5001 168.575 56.5001C168.575 56.5001 169.5 47.1402 182.356 47.8177C195.212 48.4953 200.418 65.1195 200.418 65.1195C200.418 65.1195 203.177 61.2747 206.647 64.5522C210.117 67.8298 209.306 74.1643 209.306 74.1643C232.374 83.3194 224.922 112.045 224.922 112.045C233.895 110.501 237.565 96.1461 236.811 80.2467H236.782Z" fill="#952700"/>
</g>
<g style="mix-blend-mode:multiply" opacity="0.33">
<path d="M80.4856 86.5023C86.1032 84.1229 93.0434 79.1593 93.0434 79.1593C93.0434 79.1593 69.3643 94.0816 47.534 87.4162C25.6894 80.7508 19.375 64.6938 19.375 64.6938C21.11 71.249 29.1737 81.5387 35.0189 83.4453C37.2659 84.1544 40.224 85.4938 44.2772 87.6368C56.6216 94.1919 73.773 90.4574 73.773 90.4574C73.773 90.4574 74.8965 88.8817 80.5141 86.5023H80.4856Z" fill="#952700"/>
</g>
<g style="mix-blend-mode:multiply" opacity="0.33">
<path d="M121.615 58.123C121.615 58.123 125.398 67.9557 123.251 81.1921C127.944 82.2163 128.456 76.8903 128.043 72.7145C127.631 68.5388 130.802 68.3024 130.802 68.3024C130.802 68.3024 130.916 64.6467 132.481 60.8491C129.693 60.9279 125.597 60.5339 121.615 58.123Z" fill="#952700"/>
</g>
<g style="mix-blend-mode:multiply" opacity="0.33">
<path d="M210.088 59.8092C210.088 59.8092 210.8 44.9971 201.513 37.1341C201.314 36.9608 201.214 36.8662 201.214 36.8662C201.214 36.8662 200.887 36.2674 200.247 35.2117C204.77 45.6274 201.939 55.1449 201.939 55.1449C201.399 57.8552 202.352 61.3219 204.386 61.9364C205.95 62.3934 208.069 63.8904 208.908 68.7594C209.619 71.5328 209.278 74.1958 209.278 74.1958C216.417 77.0321 220.627 81.7436 223.044 86.8806C223.044 86.8806 224.651 63.8273 210.088 59.8249V59.8092Z" fill="#952700"/>
</g>
<g style="mix-blend-mode:screen" opacity="0.67">
<path d="M72.2803 20.4786C69.0093 21.8495 82.5199 26.1198 82.5199 26.1198C82.5199 26.1198 84.3687 24.3549 86.8575 22.5428C80.1591 21.0616 77.1725 18.6192 80.7137 15.9562C80.8133 15.8932 80.8844 15.8301 80.9555 15.7671C77.4001 18.3198 74.5273 19.738 72.2945 20.4786C72.2945 20.4786 72.2945 20.4786 72.2803 20.4786Z" fill="#A99583"/>
</g>
<g style="mix-blend-mode:screen" opacity="0.67">
<path d="M121.303 31.7767C130.902 34.2663 125.313 43.0118 125.313 43.0118C137.828 28.9088 120.222 23.9452 103.412 24.024C102.061 24.024 100.738 24.024 99.458 23.9609C99.7993 26.0409 99.9558 28.5621 100.198 31.2409C108.432 31.2409 116.026 30.4215 121.303 31.7767Z" fill="#A99583"/>
</g>
<g style="mix-blend-mode:screen" opacity="0.67">
<path d="M191.159 23.5671C198.654 34.1089 196.25 39.3089 191.159 38.2531C191.159 38.2531 201.697 40.7901 198.099 32.0289C196.449 29.6968 194.145 26.7344 191.145 23.5671H191.159Z" fill="#A99583"/>
</g>
<g style="mix-blend-mode:screen" opacity="0.67">
<path d="M147.171 1.41211C135.808 1.09696 152.362 6.20239 161.791 9.74783C178.942 16.2242 188.798 27.0811 176.894 32.6593C176.894 32.6593 195.055 26.4035 172.471 12.9151C162.473 6.94298 160.497 4.86299 161.393 4.42178C161.023 4.31148 160.667 4.18542 160.298 4.07511C155.69 2.70421 151.295 1.86908 147.171 1.41211Z" fill="#A99583"/>
</g>
<g style="mix-blend-mode:screen" opacity="0.67">
<path d="M140.487 14.2067C151.708 15.94 155.519 24.6855 146.944 33.0527C146.944 33.0527 162.588 20.5412 147.356 13.3085C132.125 6.07582 114.419 6.18612 123.165 2.92432C116.481 4.57886 112.627 6.67462 112.627 6.67462C111.702 11.1182 129.266 12.4734 140.487 14.2067Z" fill="#A99583"/>
</g>
<g style="mix-blend-mode:multiply" opacity="0.33">
<path d="M47.3486 76.512C47.3486 76.512 48.6997 78.655 51.7858 78.8441C53.3929 78.9544 48.6997 83.0198 47.3486 76.512Z" fill="#A62774"/>
</g>
<path d="M44.8887 72.4149C44.8887 72.1155 45.1162 71.8791 45.3864 71.8949C45.6567 71.8949 45.87 72.147 45.87 72.4464C45.87 72.7143 45.9411 73.5652 46.3108 73.8488C46.5099 74.0064 46.8228 73.9906 47.2352 73.8015C47.7614 73.5652 48.245 73.4549 48.6859 73.4234L48.7285 70.6185C48.7285 70.3191 48.9561 70.0828 49.2263 70.0828C49.4965 70.0828 49.7098 70.3349 49.7098 70.6343L49.6672 73.4864C50.5631 73.6597 51.2884 74.1325 51.8289 74.4949C52.0991 74.6682 52.54 74.9676 52.6537 74.9361C53.2368 74.747 53.7346 73.644 53.8626 73.2815C53.9621 72.9979 54.2465 72.8719 54.5025 72.9822C54.7585 73.0925 54.8723 73.4076 54.7727 73.6913C54.7016 73.8803 54.1328 75.4088 53.1373 75.8973C53.0661 75.9288 53.0093 75.9603 52.9382 75.9761C52.412 76.1494 51.9142 75.8185 51.3311 75.4246C50.4209 74.81 49.2832 74.0694 47.605 74.81C46.8655 75.1252 46.254 75.1094 45.7562 74.7313C44.8887 74.0694 44.9029 72.5882 44.9029 72.4306L44.8887 72.4149Z" fill="#1C0A01"/>
<path d="M50.1085 68.2867C49.5965 68.4916 49.0134 68.4758 48.5157 68.2237C48.1886 68.0504 47.7904 68.0189 47.4775 68.4128C46.8944 69.1376 48.2881 70.5558 48.8996 71.1389C49.0561 71.2964 49.2836 71.2964 49.4685 71.1704C50.1369 70.6504 51.6729 69.311 51.1467 68.5546C50.8622 68.1449 50.464 68.1607 50.1227 68.3025L50.1085 68.2867Z" fill="#F9D4B9"/>
<path d="M50.1085 68.2867C49.5965 68.4916 49.0134 68.4758 48.5157 68.2237C48.1886 68.0504 47.7904 68.0189 47.4775 68.4128C46.8944 69.1376 48.2881 70.5558 48.8996 71.1389C49.0561 71.2964 49.2836 71.2964 49.4685 71.1704C50.1369 70.6504 51.6729 69.311 51.1467 68.5546C50.8622 68.1449 50.464 68.1607 50.1227 68.3025L50.1085 68.2867Z" fill="#5E290B"/>
<g style="mix-blend-mode:multiply">
<path d="M48.886 71.1386C49.0424 71.2961 49.27 71.2961 49.4548 71.1701C50.0237 70.7288 51.2041 69.7046 51.2326 68.9482C49.014 70.8391 48.3456 70.6028 47.3643 69.0743C47.5349 69.8149 48.4309 70.7289 48.9002 71.1543L48.886 71.1386Z" fill="#BF9788"/>
</g>
<path d="M63.7183 35.8736C62.6374 37.2918 61.0446 38.3948 59.3095 38.2372C57.802 38.1112 56.2945 36.8191 56.1239 35.0857C56.0954 34.7548 55.811 34.5342 55.5266 34.7075C55.0715 34.9754 54.3604 35.3851 53.8342 35.0542C53.5497 34.8809 53.3364 34.2821 53.6777 34.0615C54.0617 33.8251 53.8057 33.0688 53.3649 33.2578C52.2271 33.7621 50.4352 34.4712 49.6103 33.0057C48.8139 31.6033 49.6103 29.996 50.5205 28.9403C50.8761 28.5306 50.3072 27.9003 49.9517 28.31C48.8139 29.6651 47.9464 31.6978 48.9277 33.4469C49.781 34.9912 51.3454 34.8809 52.7391 34.4239C52.7391 34.8179 52.8671 35.2118 53.1089 35.5112C53.7204 36.2675 54.6733 36.0942 55.4554 35.716C55.8821 37.4651 57.3043 38.7888 58.9398 39.0566C61.0019 39.4033 62.993 38.1742 64.2871 36.4724C64.6142 36.0312 64.0596 35.4166 63.7183 35.8421V35.8736Z" fill="#A62700"/>
<path d="M94.8072 72.6516C94.3094 72.5098 94.0961 73.3607 94.5939 73.5025C96.1867 73.9595 97.5804 75.0625 98.4622 76.591C98.7324 77.0637 99.4292 76.6225 99.159 76.1498C98.1635 74.4322 96.5991 73.1559 94.8072 72.6516Z" fill="#A62700"/>
<path d="M100.425 74.7316C99.4434 73.5498 98.135 72.6989 96.7271 72.3364C96.2293 72.2104 96.016 73.0613 96.5138 73.1873C97.808 73.5182 98.9599 74.2746 99.8559 75.3619C100.197 75.7873 100.766 75.157 100.425 74.7316Z" fill="#A62700"/>
<path d="M21.2947 46.4782C21.4796 46.5885 21.7355 46.5413 21.8351 46.3207C21.9346 46.1158 21.892 45.8322 21.6929 45.7219C21.5933 45.6588 21.4938 45.5958 21.3942 45.517C21.3515 45.4855 21.3089 45.454 21.2662 45.4225C21.2378 45.4067 21.2093 45.3752 21.1951 45.3594C21.1382 45.3122 21.2236 45.391 21.1951 45.3594C21.0102 45.2019 20.8396 45.0285 20.6831 44.8394C20.612 44.7449 20.5409 44.6503 20.4698 44.5558C20.4414 44.5085 20.5125 44.6188 20.4698 44.5558C20.4556 44.5243 20.4271 44.4928 20.4129 44.477C20.3845 44.4297 20.356 44.3825 20.3276 44.3352C20.1996 44.1146 20.0858 43.894 19.9863 43.6419C19.9009 43.437 19.6023 43.3582 19.4458 43.4843C19.2467 43.6261 19.2041 43.8625 19.3036 44.0831C19.7161 45.1073 20.4414 45.974 21.3373 46.5097L21.2947 46.4782Z" fill="#A62700"/>
<path d="M113.864 76.4337C113.551 75.9925 112.868 76.4337 113.167 76.875C115.059 79.6325 115.528 83.2568 114.788 86.5974C114.419 88.2676 113.764 89.8907 112.811 91.2458C111.816 92.6482 110.28 93.9876 108.573 93.5937C108.246 93.5149 107.919 93.8931 108.118 94.2397C108.602 95.0591 109.142 96.3828 108.545 97.2967C108.204 97.8167 107.322 98.1003 106.909 97.5488C106.838 97.47 106.767 97.3912 106.682 97.3124C106.355 97.0446 105.942 97.5646 106.142 97.9112C106.284 98.1634 106.454 98.3367 106.654 98.4628C107.72 99.7706 107.549 102.04 106.526 103.332C105.118 105.112 102.671 105.175 100.808 104.372C100.325 104.167 100.126 105.018 100.595 105.223C102.814 106.168 105.786 105.9 107.308 103.647C108.261 102.229 108.445 100.228 107.734 98.6991C108.175 98.6361 108.616 98.4312 108.943 98.0846C109.868 97.1391 109.654 95.6579 109.157 94.4761C111.631 94.4761 113.594 91.9234 114.618 89.6228C115.798 86.944 116.211 83.8555 115.684 80.9246C115.386 79.2858 114.76 77.7259 113.85 76.4022L113.864 76.4337Z" fill="#A62700"/>
<path d="M189.026 37.3233C189.709 35.5269 188.713 33.4784 186.992 33.053C187.49 31.6978 187.618 30.2166 187.476 28.7512C187.319 27.2069 186.921 25.5997 185.798 24.5597C183.394 22.3221 180.138 23.3936 177.506 24.4494C177.023 24.6385 177.236 25.5051 177.72 25.3003C180.01 24.3863 182.897 23.2676 185.101 25.0639C186.153 25.9306 186.537 27.3645 186.679 28.7512C186.836 30.2481 186.736 31.8081 186.096 33.1633C185.954 33.4627 186.125 33.8251 186.438 33.8251C188.187 33.8724 189.026 36.0311 188.002 37.5439C187.775 37.8748 188.144 38.2687 188.457 38.1899C190.05 37.7802 190.747 40.0651 190.406 41.4045C190.007 42.996 188.514 43.8942 187.078 43.5317C186.58 43.4057 186.367 44.2566 186.864 44.3826C188.827 44.8869 190.875 43.5632 191.245 41.3099C191.415 40.2699 191.245 39.1984 190.647 38.3633C190.235 37.7802 189.666 37.4021 189.04 37.3075L189.026 37.3233Z" fill="#A62700"/>
<path d="M153.415 42.4919C153.059 40.4907 152.32 38.2216 150.272 37.875C149.205 37.7016 148.139 38.1586 147.214 38.6944C146.205 39.2774 145.294 40.0495 144.498 40.9319C144.128 41.3259 144.697 41.9562 145.067 41.5622C145.749 40.8216 146.489 40.1756 147.328 39.6556C148.125 39.1513 149.049 38.6628 149.988 38.7416C152.064 38.8992 152.533 41.6568 152.789 43.4531C152.832 43.784 153.273 43.8786 153.458 43.6422C154.467 42.3816 156.188 42.6968 156.8 44.2253C157.013 44.7453 157.696 44.2883 157.497 43.7841C156.771 42.0035 154.823 41.4992 153.443 42.4919H153.415Z" fill="#A62700"/>
<path d="M228.861 74.4322C229.444 73.991 229.856 73.2189 229.885 72.431C229.942 71.1231 229.074 70.0989 228.107 69.4213C228.534 68.8541 228.69 67.8298 228.733 67.2468C228.832 65.8759 228.576 64.505 228.093 63.2444C227.055 60.5814 224.978 58.6747 222.532 57.7135C221.081 57.1305 219.531 56.8941 217.995 56.9256C217.483 56.9256 217.483 57.8238 217.995 57.808C220.797 57.7765 223.741 58.6747 225.746 60.9438C226.685 62.0153 227.396 63.3547 227.723 64.8044C227.894 65.5135 227.965 66.2541 227.936 66.9947C227.922 67.3571 227.823 69.1377 227.211 68.9013C226.784 68.728 226.486 69.5001 226.898 69.705C227.78 70.1619 228.775 70.8395 229.031 71.9583C229.245 72.888 228.505 74.1959 227.552 73.8334C227.055 73.6759 226.855 74.511 227.339 74.6844C229.771 75.4092 231.677 77.9934 231.705 80.814C231.748 83.6346 229.942 86.2819 227.524 87.1013C227.04 87.2746 227.239 88.1255 227.737 87.9522C230.496 87.0225 232.558 84.0286 232.501 80.814C232.459 78.1195 230.951 75.6455 228.846 74.4165L228.861 74.4322Z" fill="#A62700"/>
<path d="M218.849 41.6252C220.058 40.9949 220.854 39.561 220.854 38.0955C220.854 37.8591 220.669 37.6543 220.456 37.6543C220.243 37.6543 220.058 37.8591 220.058 38.0955C220.058 38.1743 220.058 38.2531 220.058 38.3319C220.058 38.3634 220.058 38.4107 220.058 38.4422C220.058 38.4737 220.058 38.4737 220.058 38.4422C220.058 38.4422 220.058 38.4737 220.058 38.4894C220.029 38.647 220.001 38.7888 219.958 38.9464C219.944 39.0252 219.916 39.0882 219.887 39.167C219.887 39.167 219.844 39.2931 219.859 39.23C219.859 39.2616 219.83 39.2931 219.83 39.3088C219.773 39.4506 219.702 39.5925 219.617 39.7343C219.332 40.2228 218.948 40.601 218.451 40.8531C218.252 40.9476 218.209 41.2628 218.309 41.4518C218.422 41.6724 218.664 41.7197 218.849 41.6094V41.6252Z" fill="#A62700"/>
<path d="M220.697 41.2309C220.697 41.2309 220.555 41.2782 220.484 41.2782C220.484 41.2782 220.356 41.294 220.456 41.2782C220.427 41.2782 220.385 41.2782 220.356 41.2782C220.285 41.2782 220.214 41.2782 220.143 41.2782C220.114 41.2782 220.086 41.2782 220.057 41.2782C220.043 41.2782 220.015 41.2782 220.001 41.2782C220.043 41.2782 220.043 41.2782 220.001 41.2782C219.801 41.2467 219.56 41.3412 219.503 41.5934C219.46 41.7982 219.56 42.0976 219.787 42.1449C220.484 42.2709 221.209 42.0818 221.778 41.6091C222.333 41.1521 222.774 40.4903 222.888 39.7182C222.916 39.4976 222.831 39.2297 222.603 39.1667C222.418 39.1194 222.148 39.2297 222.105 39.4818C222.091 39.6394 222.048 39.797 222.006 39.9388C222.006 39.9546 221.963 40.0649 222.006 39.9861C221.992 40.0176 221.977 40.0649 221.963 40.0964C221.935 40.1594 221.906 40.2225 221.864 40.2855C221.849 40.317 221.821 40.3485 221.807 40.38C221.807 40.38 221.736 40.4903 221.764 40.4431C221.793 40.3958 221.736 40.4903 221.721 40.4903C221.693 40.5218 221.679 40.5533 221.65 40.5849C221.608 40.6479 221.551 40.6952 221.494 40.7582C221.465 40.7897 221.437 40.8055 221.409 40.837C221.409 40.837 221.409 40.837 221.394 40.8528C221.394 40.8528 221.394 40.8528 221.38 40.8528C221.266 40.9473 221.152 41.0261 221.025 41.0891C220.996 41.1049 220.953 41.1206 220.925 41.1364C220.882 41.1521 220.982 41.1206 220.911 41.1364C220.84 41.1679 220.783 41.1837 220.712 41.2152L220.697 41.2309Z" fill="#A62700"/>
<path d="M237.096 72.636C237.124 72.8724 237.266 73.0772 237.494 73.0772C237.693 73.0772 237.92 72.8724 237.892 72.636C237.792 71.6748 237.266 70.9027 236.555 70.3827C235.759 69.7996 234.792 69.6263 233.881 69.4687C233.668 69.4372 233.455 69.5318 233.384 69.7839C233.327 69.9888 233.455 70.2881 233.668 70.3354C234.464 70.4772 235.304 70.6033 236.015 71.0603C236.527 71.3912 237.024 71.9584 237.096 72.6518V72.636Z" fill="#A62700"/>
<path d="M235.175 93.1052C234.976 93.0106 234.748 93.0422 234.635 93.2628C234.535 93.4519 234.578 93.767 234.777 93.8616C236.014 94.4919 236.91 95.7052 237.209 97.1549C237.251 97.3912 237.493 97.5331 237.707 97.47C237.92 97.407 238.034 97.1549 237.991 96.9185C237.65 95.264 236.583 93.7985 235.189 93.0894L235.175 93.1052Z" fill="#A62700"/>
<path d="M172.457 6.21802C172.258 6.34408 172.23 6.61196 172.315 6.81681C172.983 8.43983 173.851 10.7089 172.642 12.2847C172.315 12.7101 172.87 13.3404 173.211 12.915C173.865 12.0798 174.107 10.9768 174.036 9.87377C173.95 8.62893 173.481 7.47864 173.026 6.35985C172.941 6.13925 172.656 6.09196 172.486 6.20227L172.457 6.21802Z" fill="#A62700"/>
<path d="M175.388 8.73934C175.174 8.80237 175.061 9.0545 175.103 9.29086C175.288 10.1733 175.174 11.1502 174.805 11.9696C174.705 12.1902 174.748 12.4423 174.947 12.5684C175.132 12.6787 175.402 12.6157 175.487 12.4108C175.971 11.3708 176.099 10.189 175.871 9.05449C175.829 8.81812 175.587 8.67631 175.373 8.73934H175.388Z" fill="#A62700"/>
<path d="M100.453 6.69092C100.623 6.58062 100.723 6.28122 100.595 6.09213C99.8838 4.97334 99.5567 3.55519 99.7416 2.20004C99.77 1.96368 99.6847 1.72731 99.4572 1.64852C99.2723 1.58549 99.0021 1.7273 98.9594 1.96367C98.7461 3.55518 99.059 5.20972 99.898 6.54911C100.026 6.7382 100.254 6.83273 100.438 6.70667L100.453 6.69092Z" fill="#A62700"/>
<path d="M20.4559 130.025C20.5555 129.473 19.7875 129.237 19.688 129.788C19.304 132.01 19.1049 134.579 19.7875 136.737C20.0862 136.737 20.3564 136.706 20.6266 136.659C19.9013 134.626 20.1004 132.105 20.4702 130.009L20.4559 130.025Z" fill="#A62700"/>
<path d="M15.9759 129C16.0186 128.433 15.2222 128.433 15.1795 129C14.9946 131.191 15.0373 133.554 15.7057 135.634C16.0612 135.839 16.4168 136.012 16.7723 136.154C15.8195 133.996 15.791 131.38 15.9901 129H15.9759Z" fill="#A62700"/>
<path d="M75.5225 137.274C75.7216 136.754 74.9394 136.517 74.7545 137.037C73.9012 139.354 73.8017 141.922 74.3848 144.317C74.655 144.286 74.911 144.238 75.167 144.175C74.5981 141.906 74.7261 139.464 75.5367 137.274H75.5225Z" fill="#A62700"/>
<path d="M71.6114 137.132C71.782 136.596 70.9999 136.359 70.8434 136.895C70.2319 138.928 70.1323 141.087 70.5021 143.167C70.815 143.419 71.1278 143.639 71.4549 143.797C70.9145 141.622 70.9572 139.29 71.6256 137.132H71.6114Z" fill="#A62700"/>
<path d="M0.73057 66.9629C7.13033 64.2368 13.8288 62.4089 20.6409 61.495C21.2951 61.4004 21.0818 60.2974 20.4418 60.392C13.5443 61.3217 6.77479 63.1968 0.289701 65.9544C-0.321832 66.2223 0.133273 67.2307 0.744806 66.9629H0.73057Z" fill="#6D2613"/>
<path d="M9.46264 79.1273C12.7052 73.5964 17.4695 69.3103 23.0017 66.8836C23.6132 66.6158 23.1581 65.6073 22.5466 65.8752C16.8437 68.3806 11.9514 72.84 8.60935 78.5285C8.25381 79.143 9.1071 79.7575 9.46264 79.143V79.1273Z" fill="#6D2613"/>
<path d="M16.2318 83.8232C18.7348 79.3008 21.8635 75.2511 25.5043 71.8002C26.0021 71.3275 25.3194 70.4766 24.8217 70.9493C21.1098 74.4632 17.9241 78.6075 15.3642 83.2087C15.0229 83.8232 15.8762 84.4377 16.2175 83.8232H16.2318Z" fill="#6D2613"/>
<path d="M93.7407 66.8995C97.5948 68.1916 101.307 70.0037 104.748 72.3358C106.455 73.4861 108.09 74.7625 109.655 76.1491C110.409 76.8109 111.134 77.5043 111.845 78.2291C112.656 79.0485 113.509 79.8836 113.822 81.097C113.992 81.7903 114.931 81.3491 114.76 80.6558C114.476 79.5212 113.779 78.6861 113.025 77.8982C112.243 77.0788 111.433 76.2909 110.608 75.5503C109.001 74.1006 107.308 72.7613 105.545 71.5479C101.975 69.1055 98.1352 67.1831 94.1105 65.8437C93.4847 65.6389 93.1007 66.6789 93.7407 66.8995Z" fill="#6D2613"/>
<path d="M88.6492 71.8634C94.0961 76.5907 98.1492 83.0828 100.24 90.3942C100.439 91.0876 101.378 90.6464 101.178 89.953C99.031 82.4682 94.8356 75.8028 89.2607 70.9495C88.7487 70.5083 88.1372 71.4064 88.6492 71.8634Z" fill="#6D2613"/>
<path d="M84.4683 76.7004C87.0708 81.2543 89.9152 86.4385 88.7917 92.064C88.6494 92.7731 89.6592 92.8991 89.8014 92.19C90.9818 86.2652 88.0095 80.7973 85.2647 76.007C84.9091 75.3925 84.1127 76.1016 84.4683 76.7004Z" fill="#6D2613"/>
<g style="mix-blend-mode:multiply" opacity="0.16">
<path d="M40.8213 99.912C40.8213 99.912 45.6851 100.621 46.2966 98.5884C46.2966 98.5884 50.3783 103.457 53.9479 102.087C53.9479 102.087 57.418 109.43 61.6987 109.997C61.6987 109.997 56.1949 112.817 56.1949 116.442C56.1949 116.442 55.5123 110.107 51.26 111.242C51.26 111.242 52.3551 103.568 44.8887 105.758C44.8887 105.758 47.6904 101.661 40.8213 99.8963V99.912Z" fill="#A62700"/>
</g>
<g style="mix-blend-mode:multiply" opacity="0.16">
<path d="M139.363 100.29C139.363 100.29 139.975 89.6698 148.849 87.9995C157.724 86.3292 171.703 99.2662 171.703 99.2662C171.703 99.2662 178.942 95.768 182.114 99.2662C182.114 99.2662 182.114 92.6953 189.865 92.648C189.865 92.648 192.41 85.1316 198.639 88.6456C198.639 88.6456 197.516 81.2238 202.621 78.088C202.621 78.088 197.416 77.4735 198.739 72.3208C198.739 72.3208 195.155 84.6274 184.247 84.202C184.247 84.202 185.982 90.4419 182.213 92.648C178.445 94.8541 173.339 88.7559 173.339 88.7559C173.339 88.7559 170.381 93.3886 163.853 91.0092C157.325 88.6456 157.496 81.4444 157.496 81.4444C157.496 81.4444 153.955 87.0226 147.74 86.2977C141.511 85.5886 139.363 81.4444 139.363 81.4444C139.363 81.4444 139.89 88.945 135.296 91.5135C135.296 91.5135 138.354 92.9474 139.378 100.29H139.363Z" fill="#A62700"/>
</g>
<defs>
<linearGradient id="paint0_linear_155_5885" x1="136.889" y1="146.46" x2="110.343" y2="53.4209" gradientUnits="userSpaceOnUse">
<stop stop-color="#F3B888"/>
<stop offset="0.08" stop-color="#F4BF94"/>
<stop offset="0.35" stop-color="#F9D4B8"/>
<stop offset="0.6" stop-color="#FCE2D2"/>
<stop offset="0.82" stop-color="#FEEBE2"/>
<stop offset="1" stop-color="#FFEFE8"/>
</linearGradient>
<linearGradient id="paint1_linear_155_5885" x1="126.72" y1="114.677" x2="108.149" y2="25.8061" gradientUnits="userSpaceOnUse">
<stop stop-color="#FF5424"/>
<stop offset="0.41" stop-color="#FF772E"/>
<stop offset="1" stop-color="#FFB140"/>
</linearGradient>
</defs>
</svg>
