<svg width="56" height="56" viewBox="0 0 56 56" fill="none" xmlns="http://www.w3.org/2000/svg">
<g clip-path="url(#clip0_65_19681)">
<path d="M28.0023 56.0046C43.4675 56.0046 56.0046 43.4675 56.0046 28.0023C56.0046 12.5371 43.4675 0 28.0023 0C12.5371 0 0 12.5371 0 28.0023C0 43.4675 12.5371 56.0046 28.0023 56.0046Z" fill="#0CBF1E"/>
<path d="M22.1768 21.716C22.9834 20.7528 23.6194 19.997 24.3383 19.1398C25.4951 19.9186 26.6288 20.7021 27.7856 21.4533C31.7214 24.0157 35.9199 25.956 40.5516 26.8915C41.9711 27.1773 43.0173 26.6519 43.2615 25.4813C43.4874 24.3982 42.7914 23.4765 41.3904 23.1816C35.9752 22.0432 31.3158 19.3656 26.7901 16.1533C27.4814 15.3007 28.1497 14.4804 28.9516 13.4941C25.3845 12.895 22.0063 12.3281 18.4392 11.729C19.7066 15.0979 20.9048 18.3102 22.1768 21.716Z" fill="#F8F9FD"/>
<path d="M12.6969 31.8228C12.6969 34.4866 12.6877 37.1504 12.6969 39.8188C12.7015 41.6761 13.3605 42.3305 15.2086 42.349C15.6049 42.3536 16.0059 42.3674 16.4022 42.3398C17.6696 42.2568 18.4162 41.5701 18.4208 40.2935C18.4485 34.6479 18.4485 28.9977 18.4208 23.352C18.4162 22.0754 17.6696 21.3887 16.4022 21.3104C15.9276 21.2827 15.4483 21.292 14.9689 21.3058C13.425 21.3473 12.7153 22.0432 12.7015 23.5963C12.683 26.3338 12.6969 29.076 12.6969 31.8228Z" fill="white"/>
<path d="M20.352 33.8C20.352 35.8693 20.3381 37.934 20.3566 40.0033C20.3704 41.6301 21.0663 42.3122 22.6932 42.3445C23.1679 42.3537 23.6472 42.3675 24.1219 42.3353C25.3247 42.2431 26.0621 41.561 26.0713 40.3489C26.1036 35.9384 26.1082 31.5233 26.0713 27.1082C26.0621 25.9007 25.3155 25.2187 24.108 25.1357C23.5919 25.0988 23.0757 25.108 22.5595 25.1265C21.0894 25.1772 20.3796 25.8731 20.3612 27.3571C20.3335 29.5093 20.352 31.657 20.352 33.8Z" fill="white"/>
<path d="M33.7446 35.5974C33.7446 34.1272 33.7677 32.6571 33.74 31.1869C33.7124 29.7029 33.0072 29.007 31.5371 28.9563C31.0209 28.9379 30.5001 28.9287 29.9885 28.9655C28.7857 29.0485 28.0437 29.7306 28.0252 30.938C27.9838 34.0766 27.9838 37.2151 28.0252 40.3536C28.0391 41.561 28.7765 42.2477 29.9747 42.3353C30.5278 42.3768 31.09 42.3676 31.6431 42.3399C32.9796 42.2754 33.6985 41.5841 33.7354 40.243C33.7769 38.6944 33.7446 37.1459 33.7446 35.5974Z" fill="white"/>
<path d="M41.3998 37.487C41.3998 36.6159 41.432 35.7403 41.3951 34.8693C41.3398 33.5374 40.6301 32.8507 39.2936 32.7861C38.7774 32.7631 38.2612 32.7585 37.7451 32.7861C36.4593 32.8553 35.7173 33.5235 35.685 34.7817C35.6343 36.6482 35.6343 38.5147 35.685 40.3766C35.7173 41.5795 36.45 42.257 37.6575 42.3307C38.252 42.3676 38.8512 42.3722 39.4411 42.3307C40.6393 42.2477 41.326 41.5564 41.3859 40.3444C41.432 39.395 41.3951 38.441 41.3998 37.487Z" fill="white"/>
</g>
<defs>
<clipPath id="clip0_65_19681">
<rect width="56" height="56" fill="white"/>
</clipPath>
</defs>
</svg>
