<svg width="12" height="12" viewBox="0 0 12 12" fill="none" xmlns="http://www.w3.org/2000/svg">
<path d="M10.882 2.11387C10.6955 1.54629 10.4789 1.03485 10.2563 0.575567C9.91132 -0.128404 8.9406 -0.204617 8.48332 0.431163L7.70314 1.52021C7.49455 1.45804 7.27995 1.40389 7.05933 1.36377C6.69832 1.29558 6.32327 1.25948 5.9402 1.25948C5.55713 1.25948 5.18609 1.29558 4.82508 1.36377C4.60647 1.40389 4.39187 1.45804 4.18128 1.52222L3.4031 0.433169C2.94782 -0.202611 1.9751 -0.126398 1.63013 0.575567C1.40551 1.03285 1.1909 1.54629 1.00238 2.11387C0.462865 3.74645 0.368599 5.19249 0.392667 6.19731C0.392667 6.25146 0.392667 6.3016 0.392667 6.35375C0.392667 7.72158 0.980314 8.96305 1.93699 9.87561C2.17967 10.1083 2.44642 10.3188 2.73322 10.5054C3.34895 10.9065 4.05893 11.1973 4.82508 11.3417C5.18408 11.4099 5.55713 11.446 5.9402 11.446C6.32327 11.446 6.69832 11.4099 7.05933 11.3417C7.82748 11.1973 8.53747 10.9085 9.15319 10.5054C9.44 10.3168 9.70474 10.1063 9.94942 9.87561C10.9041 8.96305 11.4938 7.72158 11.4938 6.35375C11.4978 6.30361 11.4978 6.25146 11.4978 6.19731C11.5178 5.19249 11.4236 3.74645 10.884 2.11387H10.882ZM3.78216 4.54268C4.06695 4.64697 4.28156 4.81544 4.438 4.99394C4.44 4.99594 4.44401 4.99996 4.44601 5.00196C4.74084 5.3369 4.5463 5.88243 4.10506 5.95062C3.95063 5.97469 3.77815 5.9807 3.59564 5.95062C3.49937 5.93658 3.39908 5.91051 3.2988 5.8744C3.02002 5.77212 2.80943 5.60766 2.65299 5.43517C2.33611 5.0862 2.54068 4.52663 3.00799 4.46245C3.23864 4.43036 3.50538 4.44039 3.78416 4.54268H3.78216ZM7.77735 5.95062C7.33611 5.88243 7.14156 5.3369 7.43639 5.00196C7.43839 4.99996 7.44241 4.99594 7.44441 4.99394C7.60085 4.81744 7.81545 4.64697 8.10025 4.54268C8.37903 4.44039 8.64578 4.43237 8.87642 4.46245C9.34373 4.52663 9.5483 5.0862 9.23142 5.43517C9.07498 5.60766 8.86439 5.77212 8.58561 5.8744C8.48533 5.91051 8.38705 5.93658 8.28877 5.95062C8.10626 5.9787 7.93379 5.97268 7.77935 5.95062H7.77735Z" fill="#0CBF1E"/>
</svg>
